<svg width="66" height="42" viewBox="0 0 66 42" fill="none" xmlns="http://www.w3.org/2000/svg">
<path d="M58.983 25.9435V23.4435H56.483H30.4436V18.5605H63.5V36.5453C63.5 38.2619 62.2415 39.5 60.3997 39.5H5.10442C4.19029 39.5 3.60154 39.1867 3.22707 38.7819C2.8349 38.358 2.5 37.636 2.5 36.5453V5.69823C2.5 4.59947 2.84138 3.78498 3.27802 3.28308C3.68851 2.81124 4.27455 2.5 5.10442 2.5H63.4962V7.38306H12.0115C10.4953 7.38306 9.10423 7.97089 8.1599 9.17667C7.28676 10.2915 7.01313 11.6561 7.01313 12.8739V29.1061C7.01313 30.3134 7.28054 31.6955 7.98298 32.8662C8.72468 34.1023 10.0709 35.2359 12.0115 35.2359H53.4888C55.3107 35.2359 56.7236 34.2322 57.592 33.1199C58.4591 32.0095 58.983 30.5645 58.983 29.1061V25.9435Z" fill="white" stroke="white" stroke-width="5"/>
</svg>
