<?xml version="1.0" encoding="UTF-8"?><svg id="Warstwa_1" xmlns="http://www.w3.org/2000/svg" viewBox="0 0 280 140"><defs><style>.cls-1,.cls-2{fill:#4d4d4d;}.cls-2,.cls-3{fill-rule:evenodd;}</style></defs><path d="M213.66,68.61h7.6l-3.51-6.47c-.06-.1-.14-.15-.24-.15h-.13c-.1,0-.18,.05-.24,.15l-3.47,6.47Zm4.28-9.76c.56,0,1.03,.11,1.41,.34,.38,.23,.76,.67,1.13,1.34l7.31,13.27c.07,.15,.09,.27,.06,.36-.04,.1-.14,.14-.32,.14h-2.81c-.25,0-.42-.1-.51-.29l-1.57-2.85h-10.38l-1.52,2.85c-.1,.19-.27,.29-.51,.29h-2.87c-.19,0-.31-.05-.34-.14-.04-.1-.02-.22,.06-.36l7.24-13.27c.37-.66,.73-1.11,1.08-1.34,.35-.23,.77-.34,1.24-.34h1.3Zm-12.3,0c.32,0,.49,.16,.49,.49v9.14c0,1.06-.11,1.96-.33,2.71-.22,.74-.58,1.35-1.07,1.81-.49,.46-1.13,.8-1.92,1.01-.79,.21-1.74,.31-2.86,.31h-8.61c-.34,0-.51-.16-.51-.49v-2.16c0-.32,.17-.49,.51-.49h8.5c.57,0,1.05-.05,1.42-.14,.38-.1,.67-.26,.89-.49,.22-.23,.38-.54,.46-.93,.09-.39,.13-.88,.13-1.47v-8.81c0-.32,.17-.49,.51-.49h2.39Zm-16.72,0c.32,0,.49,.16,.49,.49v2.16c0,.34-.16,.51-.49,.51h-9.83c-.57,0-1.05,.05-1.42,.14-.38,.1-.67,.26-.89,.49-.22,.23-.38,.53-.47,.92-.1,.38-.14,.87-.14,1.46v3.14c0,.59,.05,1.08,.14,1.47,.1,.39,.25,.7,.47,.93,.22,.23,.52,.39,.89,.49,.38,.1,.85,.14,1.42,.14h9.83c.32,0,.49,.16,.49,.49v2.16c0,.32-.16,.49-.49,.49h-9.96c-1.12,0-2.07-.1-2.85-.31-.78-.21-1.42-.54-1.91-1.01-.49-.46-.85-1.07-1.08-1.81-.23-.74-.34-1.65-.34-2.71v-3.8c0-1.06,.11-1.96,.34-2.69,.23-.74,.59-1.34,1.08-1.8,.49-.46,1.13-.8,1.91-1.02,.78-.21,1.73-.32,2.85-.32h9.96Zm-19.39,0c.32,0,.49,.16,.49,.49v14.49c0,.32-.16,.49-.49,.49h-2.39c-.34,0-.51-.16-.51-.49v-14.49c0-.32,.17-.49,.51-.49h2.39Zm-17.73,0c.32,0,.49,.16,.49,.49v8.81c0,.59,.05,1.08,.14,1.47,.1,.39,.25,.7,.47,.93,.22,.23,.52,.39,.89,.49,.38,.1,.85,.14,1.42,.14h8.94c.32,0,.49,.16,.49,.49v2.16c0,.32-.16,.49-.49,.49h-9.08c-1.12,0-2.07-.1-2.85-.31-.78-.21-1.42-.54-1.91-1.01-.49-.46-.85-1.07-1.08-1.81-.23-.74-.34-1.65-.34-2.71v-9.14c0-.32,.17-.49,.51-.49h2.39Zm-17.98,9.76h7.6l-3.51-6.47c-.06-.1-.14-.15-.24-.15h-.13c-.1,0-.18,.05-.24,.15l-3.47,6.47Zm4.28-9.76c.56,0,1.03,.11,1.41,.34,.38,.23,.76,.67,1.13,1.34l7.31,13.27c.07,.15,.09,.27,.06,.36-.04,.1-.14,.14-.32,.14h-2.8c-.25,0-.42-.1-.51-.29l-1.57-2.85h-10.38l-1.52,2.85c-.1,.19-.27,.29-.51,.29h-2.87c-.19,0-.31-.05-.34-.14-.04-.1-.02-.22,.06-.36l7.24-13.27c.37-.66,.73-1.11,1.08-1.34,.35-.23,.77-.34,1.24-.34h1.3Zm-12.61,0c.32,0,.49,.16,.49,.49v2.16c0,.34-.16,.51-.49,.51h-11.06c-.57,0-1.05,.05-1.42,.14-.38,.1-.67,.26-.89,.49-.22,.23-.38,.53-.47,.92-.1,.38-.14,.87-.14,1.46v3.18c0,.59,.05,1.08,.14,1.47,.1,.39,.25,.7,.47,.93,.22,.23,.52,.39,.89,.49,.38,.1,.85,.14,1.42,.14h7.29c.38,0,.66-.1,.84-.3,.18-.2,.26-.55,.26-1.05v-1.79c0-.19-.09-.29-.26-.29h-6.47c-.32,0-.49-.17-.49-.51v-1.66c0-.34,.16-.51,.49-.51h9.21c.44,0,.66,.22,.66,.66v5.15c0,1.24-.24,2.11-.71,2.62-.47,.51-1.15,.76-2.03,.76h-8.92c-1.12,0-2.07-.1-2.85-.31-.78-.21-1.42-.54-1.91-1.01-.49-.46-.85-1.07-1.08-1.81-.23-.74-.34-1.65-.34-2.71v-3.8c0-1.06,.11-1.96,.34-2.69,.23-.74,.59-1.34,1.08-1.8,.49-.46,1.13-.8,1.91-1.02,.78-.21,1.73-.32,2.85-.32h11.2Z"/><rect class="cls-1" x="108.12" y="77.89" width="119.75" height="1.91"/><path class="cls-2" d="M96.48,75.17h-11.21v-4.09h15.9v.33c-.03,4.97-1.37,9.64-4.97,13.22-3.57,3.56-8.17,4.91-13.14,4.91-6.24,0-11.69-2-15.79-6.79-1.9-2.22-3.26-4.74-3.95-7.58h-11.19v-4.09h15l.02,.31c.13,2.37,.86,4.58,2.07,6.62,1.41,2.38,3.37,4.2,5.8,5.52,2.53,1.37,5.25,2.02,8.12,2.02,3.34,0,6.43-.88,9.04-2.99,2.37-1.93,3.79-4.39,4.3-7.38"/><path class="cls-3" d="M77.03,52.46v-2h8.46v1.52c1.94,.24,3.84,.72,5.65,1.46,2.94,1.2,5.56,3.08,7.86,5.25l.25,.24-3.21,3.04-.22-.22c-1.86-1.82-3.99-3.31-6.39-4.34-2.15-.91-4.42-1.47-6.76-1.47-2.76,0-5.35,.69-7.78,2-2.39,1.3-4.34,3.08-5.72,5.42-.48,.81-.89,1.65-1.21,2.54l-.08,.21h-4.54l.11-.41c.44-1.6,1.08-3.12,1.92-4.55,1.72-2.94,4.08-5.23,7.06-6.87,1.46-.8,3-1.41,4.62-1.82"/></svg>