<?xml version="1.0" encoding="UTF-8"?><svg id="Warstwa_1" xmlns="http://www.w3.org/2000/svg" viewBox="0 0 280 140"><defs><style>.cls-1{fill:#005f27;}.cls-2{fill:#fcc200;}.cls-3{fill:#93c01f;}</style></defs><path class="cls-1" d="M96.9,116.53l-.16-.18,.26-.07c4.69-2.48,2.14-8.64-1.94-8.53h-2.6c-1.51,0-2.41,1.1-2.4,2.52v13.25h3.25l-.02-12.64s1.4,.04,1.69,.03c1.38-.02,2.5,2.21,.14,3.13-2.11,.85-1.97,2.13-1.52,2.95l.87,1.63c1.28,2.43,2.24,4.98,5.26,4.98h.99s-3.81-7.07-3.81-7.07Zm4.64,6.99h3.26v-15.86c-1.8,0-3.25,1.41-3.25,3.21l-.02,12.65Zm10.41-4.91v-10.95c-1.78,0-3.23,1.45-3.23,3.24l-.04,8.02c0,1.89-1.09,2.28-2.58,2.1v2.58c4.34,.43,5.85-1.76,5.85-4.99m5.28,4.91v-12.62c0-1.79-1.45-3.24-3.24-3.24v15.86s3.24,0,3.24,0Zm3.22-8.11l-.1-.11,.11-.11,4.67-7.54h-1.2c-3.02,0-3.95,2.6-5.45,4.91l-.55,.92c-.77,1.22-1.02,2.35-.03,3.85l.79,1.37c1.44,2.33,2.42,4.9,5.44,4.9h1.29l-4.97-8.19Zm11.73,8.11h7.72l-.08-3.02-6.61,.07h-.12s.05-.09,.05-.09c.49-.76,5.14-8.01,5.95-9.43,.79-1.39-.27-3.32-2.09-3.32h-7.19c0,1.63,1.32,2.93,2.96,2.93h2.98s.27,0,.27,0c0,0-.03,.04-.13,.17-.31,.46-5.12,7.56-5.89,8.77-1.25,1.94-.32,3.91,2.18,3.91m21.37-1.13c.22-.98,3.04-14.72,3.04-14.72h-.75c-1.79,0-2.96,1.41-3.24,3.22l-.71,4.79-.33,2.73-.36-2.73-.89-6.24c-.45-2.35-3.65-2.37-4.03,.03l-.89,6.22-.33,2.74-.36-2.74-.74-4.79c-.29-1.81-1.45-3.22-3.24-3.22h-.74s2.84,13.74,3.06,14.73c.38,1.7,3.36,1.88,3.82-.01,.28-1.18,.74-4.55,.99-6.1l.46-3.52s.39,3.08,.46,3.52c.26,1.6,.7,4.92,.99,6.09,.46,1.89,3.43,1.71,3.81,.01m20-4.91l-.19-.02h-2.06l-.18,.02,.07-.21,.76-3.58,.44-2.34,.4,2.34,.7,3.61,.05,.18Zm-10.96,0l-.19-.02h-2.06l-.18,.02,.07-.21,.76-3.58,.44-2.34,.4,2.34,.71,3.61,.05,.18Zm12.35,6.04h3.18s-3.14-12.73-3.55-14.25c-.56-2.05-3.86-2.24-4.47,.03l-3.25,12.58c-1.01-3.88-2.97-11.61-3.24-12.61-.55-2.05-3.86-2.24-4.48,.03l-3.75,14.22h3.32l.75-2.96h3.82l.71,2.96h5.69l.76-2.96h3.81l.71,2.96Zm15-15.85c-1.79,0-3.24,1.45-3.24,3.24l.1,5.99,.05,1.52s-.56-1.43-.68-1.74l-3.16-7.74c-.97-2.07-4.01-1.48-3.98,.73v13.85h3.24l-.09-9.09-.05-1.52c.51,1.49,.53,1.5,.63,1.74l3.15,7.56c.98,2.03,4,2.03,4-1.16l.03-13.38Z"/><path class="cls-2" d="M146.03,78.12c0-2.37,1.92-4.3,4.29-4.3s4.29,1.92,4.29,4.3-1.92,4.3-4.29,4.3-4.29-1.92-4.29-4.3"/><path class="cls-3" d="M128.98,52.69c-13.93,0-25.23,11.3-25.23,25.23v24.56s16.81,0,16.81,0v-24.22c0-2.96,.45-5.78,1.27-8.41,1.33-4.24,3.65-8.07,6.71-11.16l5.86-5.44h0c-1.72-.37-3.6-.56-5.43-.56m29.98,25.2v.03c.16,2.32-1.19,4.68-2.96,6.45-3.28,3.29-8.61,3.29-11.89,0-3.28-3.27-3.29-8.58-.03-11.87h0s17.93-17.97,17.93-17.97c6.56-6.56,6.58-17.21,0-23.79-3.28-3.28-7.59-4.93-11.89-5h-15.37s.79,0,.79,0c-5.04,0-9.13-3.89-9.55-8.85h0c-.04-.34-.27-.62-.61-.62s-.62,.27-.62,.62v8.95c0,8.66,7.07,15.42,15.69,15.59l5.26,.08c.68,0,1.36,.25,1.88,.77,1.03,1.03,1.03,2.69,0,3.72l-15.38,14.53c-9.85,9.85-9.85,25.83,0,35.69,9.85,9.85,25.83,9.85,35.68,0,9.85-9.85,9.85-25.83,0-35.68-.98-.98-2.02-1.86-3.11-2.64l-11.8,11.79c3.3,1.35,5.98,4.52,5.98,8.22"/></svg>