<?xml version="1.0" encoding="UTF-8"?><svg xmlns="http://www.w3.org/2000/svg" xmlns:xlink="http://www.w3.org/1999/xlink" viewBox="0 0 280 140"><defs><style>.cls-1{fill:#4f5569;}.cls-2{fill:url(#Dégradé_sans_nom_2);opacity:.3;}.cls-2,.cls-3,.cls-4{mix-blend-mode:multiply;}.cls-3,.cls-4{opacity:.7;}.cls-5{fill:url(#Dégradé_sans_nom_1);}.cls-6{isolation:isolate;}.cls-7{fill:url(#linear-gradient-2);opacity:.8;}.cls-4{fill:url(#linear-gradient);}.cls-8{fill:url(#Dégradé_sans_nom_3);}.cls-9{fill:url(#Dégradé_sans_nom_4);}.cls-10{fill:url(#linear-gradient-3);}</style><radialGradient id="Dégradé_sans_nom_4" cx="65.98" cy="83.7" fx="65.98" fy="83.7" r="19.36" gradientUnits="userSpaceOnUse"><stop offset="0" stop-color="#84cfec"/><stop offset=".06" stop-color="#79c5e6"/><stop offset=".37" stop-color="#4595ca"/><stop offset=".64" stop-color="#1f73b6"/><stop offset=".86" stop-color="#085da9"/><stop offset="1" stop-color="#0056a5"/></radialGradient><linearGradient id="Dégradé_sans_nom_3" x1="55.69" y1="64.51" x2="81.93" y2="79.38" gradientUnits="userSpaceOnUse"><stop offset="0" stop-color="#5bbae9"/><stop offset=".67" stop-color="#1a7ab9"/><stop offset="1" stop-color="#0061a6"/></linearGradient><linearGradient id="linear-gradient" x1="78.36" y1="70.04" x2="62.89" y2="61.22" gradientUnits="userSpaceOnUse"><stop offset="0" stop-color="#84cfec"/><stop offset="1" stop-color="#0056a5"/></linearGradient><linearGradient id="linear-gradient-2" x1="124.56" y1="238.83" x2="123.4" y2="242.07" gradientTransform="translate(.69 -190.32) rotate(11.26)" gradientUnits="userSpaceOnUse"><stop offset=".08" stop-color="#fff"/><stop offset=".13" stop-color="#fff" stop-opacity=".93"/><stop offset=".32" stop-color="#fff" stop-opacity=".65"/><stop offset=".5" stop-color="#fff" stop-opacity=".42"/><stop offset=".66" stop-color="#fff" stop-opacity=".24"/><stop offset=".8" stop-color="#fff" stop-opacity=".11"/><stop offset=".92" stop-color="#fff" stop-opacity=".03"/><stop offset="1" stop-color="#fff" stop-opacity="0"/></linearGradient><linearGradient id="Dégradé_sans_nom_2" x1="68.57" y1="74.2" x2="77.65" y2="81.43" gradientUnits="userSpaceOnUse"><stop offset="0" stop-color="#fff"/><stop offset="1" stop-color="#0069b4"/></linearGradient><linearGradient id="Dégradé_sans_nom_1" x1="50.11" y1="74.24" x2="74.7" y2="74.24" gradientUnits="userSpaceOnUse"><stop offset="0" stop-color="#84cfec"/><stop offset="1" stop-color="#0056a5"/></linearGradient><linearGradient id="linear-gradient-3" x1="64.58" y1="50.52" x2="69.3" y2="88.57" gradientUnits="userSpaceOnUse"><stop offset="0" stop-color="#84cfec"/><stop offset=".07" stop-color="#65b2db"/><stop offset=".17" stop-color="#4696ca"/><stop offset=".27" stop-color="#2c7ebc"/><stop offset=".38" stop-color="#186cb2"/><stop offset=".51" stop-color="#0a5faa"/><stop offset=".66" stop-color="#0258a6"/><stop offset=".94" stop-color="#0056a5"/></linearGradient></defs><g class="cls-6"><g id="Warstwa_1"><g><path class="cls-1" d="M145.52,64.23v4.96h11.24s-.68,3.23-.68,3.23h-10.55v7.1h-5.13v-18.51h18.11l-.69,3.23h-12.29Zm62.3,15.28h-5.89l-1.77-3.74h-9.88l-1.71,3.74h-3.71l8.71-18.51h3.46c1.31,0,1.8,.53,2.48,1.92,.64,1.31,8.3,16.59,8.3,16.59Zm-9.19-6.97l-3.5-7.39-3.38,7.39h6.88Zm-60.79,6.97h-5.89l-1.77-3.74h-9.88l-1.71,3.74h-3.71l8.72-18.51h3.46c1.31,0,1.8,.53,2.48,1.92,.64,1.31,8.31,16.59,8.31,16.59Zm-9.19-6.97l-3.5-7.39-3.38,7.39h6.88Zm-24.55,7.56c6.62,0,9.68-2.42,9.68-5.95,0-3.08-2.77-4.65-8.86-6.31-3.62-.99-5.88-1.2-5.88-2.42s2.12-1.8,5.37-1.64c4.08,.2,6.69,1.91,6.69,1.91l1.61-2.56s-3.66-2.72-9.51-2.72c-6.37,0-9.71,1.94-9.71,5.5s3.8,4.74,9.36,6.33c3.42,.98,5.38,1.16,5.38,2.47,0,1-1.03,2.27-5.57,2.04-4.37-.22-8.16-2.74-8.16-2.74l-1.94,2.36s4.16,3.73,11.54,3.73Zm123.43-19.1v11.04s-10.84-8.65-11.73-9.36c-1.6-1.28-2.33-1.68-4.13-1.68h-1.32v18.51h3.79v-10.88s10.76,8.58,11.65,9.29c1.6,1.28,2.42,1.6,4.21,1.6h1.32v-18.51h-3.79Zm-44.63,18.51h-3.47c-2.06,0-3.32-1.43-4.07-2.42-.83-1.09-2.92-3.85-2.92-3.85h-5.63v6.26h-5.13v-18.51h10.4c3.99,0,9.71,.42,9.71,6.12h0c0,3.31-1.94,4.84-4.34,5.54l5.45,6.84Zm-6.67-12.39h0c0-1.94-1.22-2.9-3.95-2.9h-5.42l-.06-.04v5.86l.06-.04h5.42c2.72,0,3.95-.95,3.95-2.89Z"/><g><path class="cls-9" d="M83.29,78.23h-.42c-3.8,5.21-9.95,8.6-16.9,8.6s-13.1-3.39-16.9-8.6h-.42c3.08,6.47,9.67,10.94,17.31,10.94s14.24-4.47,17.31-10.94Z"/><path id="_Tracé_" class="cls-8" d="M79.7,80.29c.93-1.04,1.77-2.47,1.95-3.49,.9-4.71-3.49-7.12-8.66-8.93-4.04-1.41-7.38-2.38-10.21-3.26-4.5-1.39-5.27-2.71-5.23-4.14,.04-1.67,1.8-3.78,3.8-5.02,0,0-3.77-.01-7.59,2.84-2.27,1.7-3.2,3.44-3.53,5.03-1.6,7.89,13.99,11.02,19.96,12.97,3.27,1.07,3.72,2.49,3.69,3.62-.06,2.64-3.79,5.01-3.8,5.01,3.04-.05,7.15-1.85,9.62-4.64"/><path id="_Tracé_-2" class="cls-4" d="M81.65,76.8c.9-4.71-3.49-7.12-8.66-8.93-4.04-1.41-7.38-2.38-10.21-3.26-4.5-1.39-5.27-2.71-5.23-4.14,.04-1.67,1.8-3.78,3.8-5.02-2.91,1.8-3.9,3.52-4.15,4.82-.35,1.75,.91,3.24,5.22,4.59,2.83,.88,6.17,1.84,10.21,3.25,3.39,1.18,6.31,2.43,7.86,4.5,1.45,1.92,1.16,4.19,1.16,4.19Z"/><path id="_Tracé_-3" class="cls-7" d="M68.36,66.69c-2.15-.68-2.75,.6-.24,1.43,1.23,.4,2.85,.95,4.19,1.39,4.44,1.45,8.49,3.32,7.74,7.86-.18,.92-.3,1.35-1.03,2.33,.11-.14,2.15-1.02,2.47-3.29,.62-4.41-3.97-6.62-8.87-8.31-1.23-.43-2.87-.97-4.25-1.41Z"/><path id="_Tracé_-4" class="cls-2" d="M79.01,79.71c-2,2.75-6.35,4.98-8.94,5.22h0c.45-.26,4.14-2.41,4.55-4.66,.39-2.13-.72-3.53-4.1-4.5-.69-.2-1.43-.42-2.24-.65h0s4.02-5.6,4.02-5.6c4.44,1.45,8.49,3.32,7.74,7.86-.18,.92-.31,1.35-1.03,2.33"/><g id="_Tracé_-5" class="cls-3"><path class="cls-5" d="M70.52,75.76c-1.77-.51-3.93-1.15-6.52-1.92-1.99-.59-4.52-1.49-6.88-2.53-6.31-2.79-7.11-6.17-6.95-7.76-1.26,7.72,14.09,10.81,20,12.74,3.27,1.07,3.72,2.49,3.69,3.62-.06,2.64-3.79,5.01-3.8,5.01,.45-.26,4.14-2.41,4.55-4.66,.39-2.13-.72-3.53-4.1-4.5Z"/></g><path class="cls-10" d="M83.29,61.77h-.42c-3.8-5.21-9.95-8.6-16.9-8.6s-13.1,3.39-16.9,8.6h-.42c3.08-6.47,9.67-10.94,17.31-10.94s14.24,4.47,17.31,10.94Z"/></g></g></g></g></svg>