<?xml version="1.0" encoding="UTF-8"?><svg id="Warstwa_1" xmlns="http://www.w3.org/2000/svg" xmlns:xlink="http://www.w3.org/1999/xlink" viewBox="0 0 280 140"><defs><style>.cls-1{clip-path:url(#clippath);}.cls-2{fill:none;}.cls-3{fill:#231f20;}</style><clipPath id="clippath"><rect class="cls-2" x="51.23" y="47.5" width="177.54" height="45"/></clipPath></defs><g class="cls-1"><path class="cls-3" d="M65.54,63.48v-2.56c0-1.65-1.05-2.48-3.16-2.48h-6.69v7.42h7.23c1.74,0,2.62-.79,2.62-2.38m19.47-3.36c0-1.09-.51-1.64-1.54-1.64h-6.79v3.56h6.79c.59,0,.99-.14,1.21-.43,.22-.29,.33-.78,.33-1.49m4.35-.5c0,1.23-.17,2.15-.52,2.78-.35,.63-.95,1.05-1.81,1.26,1.48,.36,2.21,1.28,2.21,2.76v2.98h-4.27v-2.22c0-.6-.14-1-.41-1.2-.28-.2-.78-.3-1.51-.3h-6.37v3.72h-4.29v-14.53h11.24c2.16,0,3.64,.32,4.46,.96,.85,.68,1.27,1.95,1.27,3.8m18.14,9.77h-15.45v-14.53h15.28v3.54h-11.01v2.2h10.37v3.06h-10.37v2.22h11.18v3.52Zm26.57-14.53l-4.67,14.53h-4.81l-3.23-10.01-3.29,10.01h-4.89l-4.46-14.53h4.25l2.89,10.33,3.58-10.33h3.92l3.39,10.33,3.08-10.33h4.25Zm58.93,14.53h-4.14v-10.35l-5.77,10.35h-2.79l-5.73-10.35v10.35h-4.15v-14.53h6.31l4.98,9.07,5.08-9.07h6.21v14.53Zm18.3,0h-15.45v-14.53h15.28v3.54h-11.01v2.2h10.37v3.06h-10.37v2.22h11.18v3.52Zm17.47-10.97h-5.85v10.97h-4.27v-10.97h-5.85v-3.56h15.97v3.56Zm-68.65-8l2.82-2.93h0s0,0,0,0h65.83v3.7h-64.36l-1.76,1.82c1.9,2.51,3.04,5.67,3.04,9.1h0c0,3.46-1.16,6.65-3.09,9.17l1.8,1.87h64.36v3.7h-65.83s0,0,0,0l-2.88-2.99c-2.38,1.87-5.34,2.99-8.55,2.99h0c-3.2,0-6.16-1.11-8.54-2.98l-2.87,2.98h0s0,0,0,0H51.42v-3.7h87.19l1.79-1.86c-1.94-2.52-3.1-5.72-3.1-9.18h0c0-3.44,1.14-6.61,3.05-9.12l-1.74-1.81H51.42v-3.7h88.66s0,0,0,0l2.8,2.91c1.94-1.54,4.28-2.58,6.82-2.91v3.74c-2.22,.39-4.2,1.5-5.73,3.09-1.93,2-3.12,4.76-3.12,7.8h0c0,3.04,1.19,5.8,3.12,7.8,1.93,2,4.58,3.24,7.51,3.24h0c2.93,0,5.58-1.24,7.51-3.24,1.93-2,3.12-4.76,3.12-7.8h0c0-3.04-1.19-5.8-3.12-7.8-1.53-1.59-3.51-2.7-5.73-3.09v-3.74c2.55,.33,4.89,1.37,6.84,2.93m-90.3,14.32c0,1.61-.39,2.79-1.16,3.54-.78,.75-2.01,1.12-3.7,1.12h-13.53v-14.53h12.27c2.1,0,3.65,.38,4.64,1.15,.99,.77,1.48,2.01,1.48,3.73v5Zm85.29,4.46c3.37-2.7,3.35-4.66,1.92-6.69,.32,1.02,.03,2.03-.58,2.97-.94,1.44-.9,1.87-1.34,3.72m-.79-9.61c.87,1.94,1.22,3.84,1.25,5.65,1.08-2.76,.69-3.78-1.25-5.65m4.88,7.49c-1.21,2.03-3.16,3.55-5.39,4.18,.79-4.39-.19-10.39-3.5-13.17,1.35,5.11,.86,9.12-2.17,12.8-1.37-.58-2.59-1.49-3.54-2.66-2.31-2.84-1.6-7.15,.35-8.73,.49,2.72,2.31,1.47,3.73,4.72,.66-1.21,.35-2.41-.07-3.6-.65-1.85-.88-3.4-.33-4.93,.74-2.06,2.13-2.75,3.93-3.59-1.37,2.19-1.56,3,.12,5.05-.22-1.69-.25-2.81,.78-4.24-.31,3.08,1.27,4.34,3.32,6.18,2.37,2.13,4.74,4.69,2.77,8m-14.4-3.83c.05,2.32,.19,3.44,2.16,4.68-.04-.72,0-1.41-.08-2-.16-1.27-.78-1.23-1.55-1.98-.19-.19-.38-.42-.53-.7"/><path class="cls-3" d="M225.17,89.9l-.48,2.36h2.33l.48-2.36h-2.33Zm-5.11-4.17l-.56,2.7c-.18,.85-.33,1.4-.45,1.65-.17,.36-.43,.54-.78,.54-.45,0-.68-.24-.68-.72,0-.21,.08-.7,.24-1.47l.56-2.71c.18-.86,.32-1.41,.44-1.65,.17-.35,.43-.52,.79-.52,.46,0,.69,.24,.69,.72,0,.21-.08,.7-.24,1.47m-.32-4.08c-1.49,0-2.5,.59-3.02,1.78-.45,1.03-.85,2.56-1.18,4.59-.13,.8-.2,1.4-.2,1.8,0,.87,.24,1.54,.72,2,.48,.46,1.17,.69,2.09,.69,1.5,0,2.52-.62,3.06-1.87,.42-.96,.8-2.45,1.14-4.49,.13-.78,.2-1.37,.2-1.76,0-1.82-.94-2.73-2.81-2.73m-10.88,8.25l-.48,2.36h2.33l.48-2.36h-2.33Zm-3.5-7.58c-.48-.45-1.17-.67-2.06-.67-1.51,0-2.53,.62-3.07,1.87-.4,.93-.78,2.42-1.13,4.49-.14,.84-.21,1.42-.21,1.76,0,1.82,.94,2.73,2.83,2.73,1.06,0,1.86-.32,2.42-.95,.55-.63,.96-1.68,1.23-3.15h-2.27c-.18,.85-.33,1.41-.47,1.68-.19,.36-.45,.54-.8,.54-.45,0-.68-.24-.68-.72,0-.21,.08-.7,.24-1.47l.56-2.71c.18-.86,.32-1.41,.44-1.65,.17-.35,.43-.52,.78-.52,.47,0,.7,.29,.7,.85,0,.27-.05,.67-.16,1.23h2.24c.09-.54,.13-1.01,.13-1.42,0-.81-.24-1.43-.72-1.88m-17.51,2.15l-1.42,4.93v-4.93h-1.8l-1.62,5.11,.23-5.11h-1.94l.16,7.78h2.16l1.36-4.16v4.16s2.18,0,2.18,0l2.77-7.78h-2.06Zm-12.54,3.36l-.28,1.39c-.13,.65-.25,1.08-.34,1.28-.14,.28-.36,.41-.64,.41-.38,0-.57-.23-.57-.7,0-.26,.07-.7,.2-1.34l.29-1.39c.14-.66,.26-1.09,.36-1.28,.13-.28,.34-.41,.63-.41,.38,0,.57,.23,.57,.7,0,.18-.07,.63-.21,1.33m1.6-2.99c-.43-.39-1.05-.58-1.87-.58-.69,0-1.24,.12-1.65,.36-.41,.24-.75,.64-1.02,1.21-.21,.43-.43,1.17-.64,2.2-.2,.99-.31,1.73-.31,2.22,0,.71,.22,1.25,.65,1.63,.43,.38,1.05,.57,1.86,.57,.69,0,1.25-.12,1.66-.36,.42-.24,.76-.64,1.02-1.2,.19-.4,.41-1.16,.64-2.27,.2-.93,.29-1.64,.29-2.15,0-.71-.21-1.25-.64-1.64m-1.4-3.11l-1.06,1.89h1.26l1.72-1.89h-1.92Zm-7.1,1.9l.36-1.74h-1.82l-.63,3-.78,.51-.45,2.18,.81-.54-1.06,5.21h1.81l1.33-6.47,.85-.55,.45-2.16-.86,.56Zm-6.97,.84l.48-2.31h-2.08l-.48,2.31h-.84l-.29,1.42h.84l-.73,3.58c-.16,.78-.24,1.29-.24,1.52,0,.94,.59,1.41,1.78,1.41,.25,0,.57-.02,.97-.07l.32-1.56h-.26c-.43,0-.64-.13-.64-.4,0-.08,.02-.23,.07-.45l.81-4.02h1.02l.29-1.42h-1.03Zm-8.93,3.36l-.28,1.39c-.13,.65-.25,1.08-.35,1.28-.14,.28-.35,.41-.64,.41-.38,0-.57-.23-.57-.7,0-.26,.07-.7,.2-1.34l.29-1.39c.14-.66,.26-1.09,.36-1.28,.13-.28,.34-.41,.62-.41,.38,0,.57,.23,.57,.7,0,.18-.07,.63-.21,1.33m1.6-2.99c-.43-.39-1.05-.58-1.87-.58-.69,0-1.24,.12-1.65,.36-.41,.24-.75,.64-1.02,1.21-.21,.43-.43,1.17-.64,2.2-.2,.99-.31,1.73-.31,2.22,0,.71,.22,1.25,.65,1.63,.43,.38,1.05,.57,1.86,.57,.69,0,1.25-.12,1.66-.36,.42-.24,.76-.64,1.02-1.2,.2-.4,.41-1.16,.64-2.27,.19-.93,.29-1.64,.29-2.15,0-.71-.22-1.25-.65-1.64m-9.56-2.95l-2.39,3.93,.89-3.93h-2.33l-2.12,10.36h2.33l.52-2.84,.72-.95,.7,3.79h2.32l-1.44-5.69,3.33-4.67h-2.53Zm-15.42,2.58l.48-2.31h-2.07l-.48,2.31h-.84l-.29,1.42h.84l-.73,3.58c-.16,.78-.24,1.29-.24,1.52,0,.94,.59,1.41,1.78,1.41,.25,0,.57-.02,.97-.07l.32-1.56h-.27c-.43,0-.64-.13-.64-.4,0-.08,.02-.23,.07-.45l.81-4.02h1.02l.29-1.42h-1.03Zm-7.11,.24c-.27-.27-.64-.41-1.11-.41-.61,0-1.2,.31-1.77,.92l.15-.76h-1.86l-1.6,7.78h2.08l1-4.88c.11-.53,.23-.92,.37-1.15,.14-.23,.33-.35,.57-.35,.31,0,.47,.16,.47,.48,0,.17-.01,.33-.04,.45l-1.12,5.44h2.07l1.04-5.03c.12-.56,.17-1.02,.17-1.39,0-.48-.14-.85-.41-1.12m-11.12,2.65h-1.58c.12-.63,.26-1.08,.39-1.33,.14-.25,.36-.38,.66-.38,.43,0,.65,.27,.65,.8,0,.19-.04,.5-.12,.91m-.49-3.1c-.69,0-1.24,.12-1.66,.37-.41,.24-.76,.64-1.03,1.21-.19,.4-.41,1.16-.64,2.26-.2,.97-.31,1.69-.31,2.15,0,1.48,.84,2.22,2.51,2.22,.9,0,1.59-.22,2.08-.67,.49-.45,.82-1.18,.99-2.18h-2c-.14,.9-.46,1.35-.96,1.35-.43,0-.64-.24-.64-.71,0-.25,.04-.55,.12-.91l.15-.66h3.55c.21-.96,.32-1.66,.32-2.09,0-1.54-.83-2.31-2.5-2.31m-7.46,.59c-.43-.39-1.05-.59-1.85-.59-.69,0-1.24,.12-1.66,.37-.41,.24-.76,.64-1.03,1.21-.2,.4-.41,1.16-.64,2.26-.2,.97-.31,1.69-.31,2.15,0,.71,.22,1.25,.64,1.64,.43,.39,1.05,.58,1.87,.58,.95,0,1.67-.25,2.15-.75,.49-.5,.84-1.34,1.05-2.52h-2.06c-.12,.63-.25,1.06-.39,1.31-.16,.28-.39,.41-.69,.41-.36,0-.55-.23-.55-.67,0-.24,.07-.69,.21-1.36l.29-1.39c.14-.65,.26-1.08,.36-1.28,.13-.28,.34-.41,.63-.41,.41,0,.61,.24,.61,.73,0,.17-.03,.44-.09,.81h2.02c.04-.28,.07-.56,.07-.84,0-.71-.22-1.26-.65-1.65m-10.46-.38l-1,4.88c-.11,.53-.22,.91-.35,1.13-.14,.25-.33,.37-.57,.37-.32,0-.48-.16-.48-.47,0-.14,.02-.29,.05-.47l1.12-5.44h-2.08l-1.04,5.03c-.12,.61-.19,1.05-.19,1.34,0,.51,.14,.9,.41,1.17,.27,.28,.65,.41,1.12,.41,.61,0,1.2-.31,1.77-.92l-.16,.76h1.88l1.6-7.78h-2.09Zm-10.24,3.4l-.29,1.46c-.11,.59-.23,.99-.35,1.21-.14,.27-.34,.41-.59,.41-.38,0-.57-.23-.57-.69,0-.28,.05-.67,.16-1.14l.29-1.32c.14-.64,.26-1.07,.36-1.28,.14-.29,.33-.43,.56-.43,.37,0,.56,.24,.56,.72,0,.27-.04,.62-.13,1.06m1.24-5.98l-.76,3.68c-.19-.85-.69-1.28-1.5-1.28-.56,0-1,.18-1.32,.55-.32,.37-.6,.97-.83,1.79-.47,1.66-.71,3.01-.71,4.04,0,1.19,.51,1.79,1.54,1.79,.74,0,1.34-.32,1.82-.95l-.15,.74h1.85l2.13-10.36h-2.08Zm-10.58,5.94l-.28,1.39c-.13,.65-.25,1.08-.35,1.28-.14,.28-.35,.41-.64,.41-.38,0-.57-.23-.57-.7,0-.26,.07-.7,.2-1.34l.29-1.39c.14-.66,.26-1.09,.36-1.28,.13-.28,.34-.41,.63-.41,.38,0,.57,.23,.57,.7,0,.18-.07,.63-.21,1.33m1.6-2.99c-.43-.39-1.05-.58-1.87-.58-.69,0-1.24,.12-1.65,.36-.41,.24-.75,.64-1.02,1.21-.21,.43-.43,1.17-.64,2.2-.2,.99-.31,1.73-.31,2.22,0,.71,.22,1.25,.65,1.63,.43,.38,1.05,.57,1.86,.57,.69,0,1.25-.12,1.66-.36,.42-.24,.76-.64,1.03-1.2,.19-.4,.41-1.16,.64-2.27,.2-.93,.29-1.64,.29-2.15,0-.71-.22-1.25-.65-1.64m-8.14-.59c-.86,0-1.53,.57-2.01,1.71l.31-1.49h-1.84l-1.6,7.78h2.08l.76-3.65c.15-.74,.3-1.23,.45-1.46,.21-.32,.56-.48,1.04-.48h.45l.49-2.41h-.13Zm-11.02,2.12h-.57l.56-2.71h.53c.56,0,.84,.33,.84,.98,0,1.16-.45,1.74-1.36,1.74m2.93-3.88c-.44-.39-1.34-.59-2.7-.59h-2.22l-2.13,10.36h2.36l.84-4.11h1.12c2.33,0,3.5-1.24,3.5-3.73,0-.84-.25-1.48-.76-1.93"/></g></svg>