<?xml version="1.0" encoding="UTF-8"?><svg id="Warstwa_1" xmlns="http://www.w3.org/2000/svg" viewBox="0 0 280 140"><defs><style>.cls-1{fill:#e20613;}</style></defs><path class="cls-1" d="M179.12,17.2c-1.48-.75-3.19-.56-4.79-.56H105.7c-1.28,0-2.59-.13-3.84,.2-2.36,.62-4.14,2.99-4.01,5.45-.03,31.23,0,62.42-.03,93.62,.03,1.38-.13,2.82,.46,4.14,.85,1.97,2.92,3.38,5.09,3.32h71.29c1.45,0,2.96,.2,4.3-.49,1.9-.85,3.25-2.86,3.22-4.96V22.29c.07-2.1-1.18-4.17-3.05-5.09m.13,98.71c-.07,1.28,.23,2.82-.79,3.78-.92,.95-2.3,.69-3.48,.75-23.87-.03-47.74-.03-71.62-.03-1.48,.1-2.76-1.38-2.59-2.82V22.29c-.03-1.02,.53-2.04,1.44-2.46,1.02-.39,2.1-.2,3.15-.26,23.64,.03,47.28,.03,70.93,0,.82,0,1.71,.17,2.27,.85,.85,.95,.66,2.36,.69,3.55-.03,30.64-.03,61.31,0,91.94"/><path class="cls-1" d="M174.43,98.34c-.1-1.18,.13-2.43-.33-3.55-2.13-4.89-4.3-9.75-6.4-14.65-.33-.69-.53-1.61-1.35-1.9-1.87-.89-2.99-2.79-3.48-4.73-1.28-5.12-.16-10.67-2.46-15.53,4.56,.29,9.1,1.05,13.66,1.41-2.49-2.04-5.32-3.68-7.95-5.55-1.05-.79-2.4-1.74-3.74-1.12-.95,.56-1.58,1.48-2.36,2.23-1.08,1.31-2.96,.52-4.4,.72,.33-1.05,1.12-1.87,1.67-2.76,5.12-7.68,10.38-15.24,15.43-22.95-2.2-.07-4.4,.07-6.57-.07,.72-1.67,1.54-3.28,2.23-4.99-8.04,0-16.09-.03-24.14,.13-2.73,6.5-5.65,12.87-8.41,19.37-.95,.13-1.94,0-2.89-.06-.26-.76-.43-1.51-.59-2.3,1.05-.03,2.1-.06,3.15-.06-.23-1.15-.53-2.27-.79-3.42-1.12-.13-2.27,.03-3.38-.17-.1-.62-.2-1.25-.33-1.9,.89,0,1.77,0,2.66-.03-.07-1.18-.13-2.4-.39-3.55-5.25-.49-10.47-.95-15.7-1.38-.13,1.25-.39,2.5-.23,3.74,.95,1.12,2.1,2.1,3.12,3.19-1.15,6.31-2.53,12.58-3.74,18.88l-.23,.16c-3.15-.03-6.27-.36-9.42-.43-.03,.62-.1,1.21-.13,1.84-.46,.23-.99,.56-.89,1.15,.07,3.51,.26,7.03,.36,10.54-.03,1.08,.85,2.04,1.9,2.27,1.74,.49,3.45,1.05,5.19,1.61,.03-.95,.03-1.87-.03-2.79-1.28-.69-2.63-1.25-3.81-2.07,1.74,.33,3.38,1.15,5.15,1.35,.1-1.12,.23-2.23,.2-3.35-1.58-.03-3.12,0-4.7-.03-1.18-1.15-1.9-2.86-1.28-4.5,2.17-.2,4.37,.07,6.53,.36,8.83,1.15,17.7,2.27,26.53,3.38,.76,.13,1.61,.07,2.27,.56,5.75,4.1,11.39,8.41,16.52,13.33,3.81,3.71,7.39,7.75,9.88,12.48,.82,1.67,1.64,3.35,1.94,5.19-6.7,.03-13.36-.07-20.06,.07-.85,4.7-1.94,9.36-2.69,14.09,3.65,0,7.26,.03,10.9,0,.26-.95,.46-1.94,.66-2.89-2.43-.1-4.86,0-7.29-.03,.07-.98,.3-1.94,.49-2.89,2.2-.23,4.43,0,6.67-.13,.1-.89,.23-1.81,.36-2.73-2.17-.03-4.33,.07-6.5-.03,.07-.92,.2-1.81,.36-2.69,3.84-.03,7.65-.07,11.46,.03-.72,3.71-1.54,7.42-2.07,11.16,1.15,.03,2.3,.03,3.45,0,.95-3.68,1.58-7.45,2.36-11.16,1.28-.07,2.56-.03,3.81-.07,.3-.82,.46-1.71,.62-2.56-.23-.07-.62-.16-.82-.23m-17.44-68.13c2.63-.1,5.25-.07,7.88,0-.59,1.15-1.35,2.23-2.07,3.32-2.46,.07-4.89,.07-7.36,0,.36-1.18,1.02-2.23,1.54-3.32m-3.91,7.62c2.46-.1,4.93-.03,7.42-.03-.66,1.08-1.31,2.17-2,3.22-2.33,.1-4.63,.06-6.96,.03,.36-1.15,1.02-2.14,1.54-3.22m-2.79,16.98c-1.77-.39-3.64-.62-5.38-1.21,.36-.79,.79-1.58,1.25-2.33,1.94,.23,3.88,.49,5.85,.72-.49,.98-1.08,1.9-1.71,2.82m-1.94-7.59c.26-.82,.62-1.58,1.05-2.3,2.23-.07,4.47-.07,6.7,0-.3,.82-.82,1.51-1.28,2.23-2.17,.1-4.3,.03-6.47,.07"/><path class="cls-1" d="M135.29,98.47c1.71-.1,3.42-.13,5.12,.03,.23,3.18,.33,6.4,.72,9.59,.13-.16,.36-.46,.46-.62,1.35-2.96,2.63-5.91,4.01-8.83,1.61-.49,3.41-.16,5.09-.16-.69,4.6-1.71,9.16-2.43,13.79-1.12,.2-2.27,.13-3.41,.07,.69-3.51,1.58-6.96,2.17-10.51-1.61,3.41-3.06,6.93-4.66,10.38-1.15,.39-2.5,.16-3.68,.07-.33-3.38-.33-6.83-.98-10.18-.2,3.45-.99,6.8-1.51,10.18-1.12,.16-2.23,.13-3.32,.1,.66-4.66,1.64-9.26,2.43-13.89"/><path class="cls-1" d="M117.33,99.03c-1.68-.79-3.58-.59-5.39-.62-1.61,.07-3.22-.13-4.83,.13-.76,4.6-1.74,9.16-2.43,13.79,1.18,.07,2.4,.13,3.58-.07,.36-1.64,.56-3.35,1.05-4.96,1.31-.03,2.63-.1,3.91,.13,.43,1.61-.33,3.25-.1,4.89,1.25,.07,2.5,.07,3.71,0-.39-1.54,0-3.09,.16-4.66,.16-.85-.56-1.41-1.12-1.9,1.02-.75,2.03-1.58,2.5-2.79,.52-1.31,.36-3.25-1.05-3.94m-3.55,5.22c-1.35,.2-2.72,.07-4.07,.07,.16-1.05,.36-2.1,.62-3.12,1.48-.03,3.05-.26,4.47,.39,.62,.92,0,2.33-1.02,2.66"/><path class="cls-1" d="M133.05,101.92c-.3-1.84-1.9-3.28-3.71-3.71-1.48-.3-3.02-.26-4.47,.1-1.84,.59-3.71,1.48-4.7,3.19-1.12,1.97-1.68,4.3-1.58,6.57,.03,1.81,1.18,3.55,2.89,4.2,3.64,1.38,8.34,.03,10.31-3.45,1.08-2.1,1.64-4.53,1.25-6.9m-5.45,6.96c-1.41,1.51-4.63,1.28-5.22-.89-.43-2.46,.39-5.55,2.82-6.73,1.25-.56,3.05-.39,3.74,.92,1.12,2.2,.23,4.96-1.35,6.7"/><path class="cls-1" d="M107.89,96.65c-1.88,0-3.44-1.52-3.44-3.43s1.56-3.44,3.46-3.44,3.43,1.52,3.43,3.43-1.54,3.44-3.45,3.44m0-6.48c-1.67,0-3.01,1.36-3.01,3.05s1.34,3.06,3,3.06,3.02-1.36,3.02-3.07-1.34-3.04-3.01-3.04m1.27,5.02c-.31-.74,.23-1.84-.95-1.84h-1.33v1.84h-.33v-4.13h1.67c.68,0,1.21,.29,1.21,1.1,0,.53-.28,.88-.75,1.02,1.01,.23,.47,1.3,.82,2.01h-.35Zm-1.08-3.81h-1.19v1.66h1.27c.52,0,.94-.22,.94-.85,0-.67-.47-.81-1.01-.81"/></svg>