<?xml version="1.0" encoding="UTF-8"?><svg id="Warstwa_1" xmlns="http://www.w3.org/2000/svg" viewBox="0 0 280 140"><defs><style>.cls-1{fill:#1a1a18;}</style></defs><path class="cls-1" d="M168.57,45.18l-21.06,32.42h-.9l-11.16-32.42h10.81l4.19,12.9,8.23-12.9h9.9Zm-64.58,30.68l21.06-32.42h.91l11.16,32.42h-10.81l-4.18-12.9-8.23,12.9h-9.9Zm79.01-30.68l-5.44,30.68h-10.81l5.37-30.68h10.88Zm-77.71,0l-6.25,9.59,1.7-9.59h-10.88l-5.37,30.68h10.81l3.74-21.08h9.89l5.9-9.6h-9.55Zm92.03-3.1c1.1-.05,2.17,.18,3.21,.69,1.04,.51,1.87,1.26,2.49,2.26,.62,1.01,.96,2.07,1.01,3.19,.05,1.12-.19,2.2-.71,3.24-.53,1.04-1.28,1.87-2.27,2.48-.99,.61-2.04,.94-3.16,.99-1.12,.05-2.2-.19-3.24-.71-1.04-.52-1.87-1.28-2.48-2.27-.61-.99-.94-2.04-.99-3.16-.05-1.12,.19-2.21,.73-3.27,.53-1.05,1.3-1.88,2.28-2.47,.99-.6,2.03-.92,3.14-.96Zm.06,1.26c-.88,.04-1.72,.29-2.51,.77-.79,.48-1.4,1.14-1.83,1.99-.43,.85-.63,1.73-.59,2.63,.04,.9,.31,1.75,.8,2.55,.49,.8,1.16,1.41,1.99,1.83,.84,.42,1.7,.61,2.6,.57,.9-.04,1.75-.31,2.54-.8,.79-.49,1.4-1.16,1.82-2,.42-.84,.61-1.71,.57-2.61-.04-.91-.31-1.76-.81-2.57-.5-.81-1.17-1.42-2-1.82-.83-.41-1.69-.59-2.58-.55Zm-2.54,8.73l-.3-6.82,1.39-.06c1.3-.06,2.02-.08,2.18-.08,.46,.02,.82,.09,1.08,.23,.26,.13,.48,.34,.66,.63,.19,.29,.29,.61,.3,.97,.02,.49-.12,.92-.43,1.28-.31,.37-.75,.6-1.33,.71,.21,.07,.37,.15,.49,.24,.11,.09,.28,.25,.48,.5,.05,.07,.23,.33,.54,.81l.86,1.34-1.71,.08-.62-1.08c-.42-.73-.76-1.18-1.02-1.36-.26-.18-.58-.27-.97-.25l-.36,.02,.12,2.8-1.39,.06Zm1.22-3.93l.56-.02c.8-.04,1.29-.09,1.49-.16,.19-.07,.34-.18,.44-.34,.11-.16,.15-.34,.15-.53,0-.19-.07-.36-.18-.5-.12-.14-.28-.24-.48-.3-.2-.05-.7-.06-1.49-.03l-.56,.02,.08,1.86Zm-18.19,43.96l.29,1.62c-34.95-21.84-69.14,13.57-102.21,1.69v-.18c34.78,3.25,63.27-26.91,101.92-3.14Z"/></svg>