<?xml version="1.0" encoding="UTF-8"?><svg id="Warstwa_1" xmlns="http://www.w3.org/2000/svg" viewBox="0 0 280 140"><defs><style>.cls-1{fill-rule:evenodd;}</style></defs><path class="cls-1" d="M65.4,52.56c-2.53,.07-4.99,.56-7.31,1.62l3.02,5.34c1.34-.56,2.88-.91,4.29-.91,6.46,0,11.87,5.82,11.39,12.23-.49,6.26-5.49,10.19-11.39,10.48h-1.13c-3.87-.84-7.1-2.46-9-6.12l-6.33-10.97c-.84,2.53-1.13,4.92-.91,7.52,.98,8.3,7.31,14.62,15.61,15.61,.56,.07,1.2,.07,1.76,.07,9.63-.14,17.37-7.81,17.51-17.37-.14-9.49-7.38-16.8-16.59-17.51h-.91Zm0,39.94c-12.38,0-22.57-10.12-22.57-22.43,0-6.05,2.39-11.53,6.33-15.61l10.76,18.56c.52,.88,1.22,1.64,2.04,2.25,.98,.56,2.11,.98,3.3,.98h.14c4.36,.14,7.38-4.57,5.91-8.44-.84-2.46-3.3-4.08-5.91-4.08-.35,0-.7,0-1.05,.07-1.9,.21-3.8,1.83-4.64,3.52l-8.51-14.77c4.01-3.27,9.03-5.06,14.2-5.06,12.45,0,22.57,10.13,22.57,22.57s-10.12,22.43-22.57,22.43h0Zm57.45-19.76l-3.45-5.84c-.14,.57-.21,1.17-.21,1.76v16.1h6.19v-7.59l-2.53-4.43h0Zm36.63-1.2l3.3,5.69v7.45h-.07v.07h-6.96v-19.62l3.73,6.4h0Zm0-3.09l3.3,5.63v-3.66c0-2.67,4.5-2.88,4.5,0v14.27h4.15v.07h3.58v-14.34c0-2.67,4.5-2.88,4.5,0v14.34h6.96v-14.7c0-7.94-9.98-9.42-13.64-4.43-2.25-3.09-6.89-3.73-10.13-1.9v-.98h-6.54l3.31,5.7h0Zm38.81,6.89l-7.59-13.15v22.5h6.19v-.92c1.48,.74,3.12,1.13,4.78,1.12,5.98,0,10.9-4.92,10.9-10.97s-4.92-10.9-10.9-10.9c-1.76,0-3.38,.42-4.78,1.13v-9.07h-6.19v3.94l7.73,13.29c.56-1.12,1.83-1.97,3.24-1.97,1.98,0,3.58,1.61,3.59,3.59,0,1.98-1.61,3.58-3.59,3.59-1.55,0-2.81-.84-3.37-2.18h0Zm24.75,.21l-5.06-8.72c-1.69,1.9-2.67,4.36-2.67,7.1,0,6.05,4.92,10.97,10.97,10.97s10.9-4.92,10.9-10.97-4.92-10.9-10.9-10.9c-2.74,0-5.2,.98-7.17,2.67l3.94,6.68c.6-1.24,1.85-2.03,3.23-2.04,1.98,0,3.58,1.61,3.59,3.58,0,1.98-1.61,3.58-3.59,3.59-1.41,0-2.67-.77-3.24-1.97h0Zm-79.73,3.52c1.13-.42,1.9-1.48,2.11-2.67h7.17c-1.06,4.46-4.74,7.81-9.28,8.44-.42,0-.91,.07-1.41,.07-5.98,0-10.9-4.92-10.9-10.97,0-2.39,.77-4.5,2.04-6.33l5.62,9.63c.56,1.27,1.76,2.11,3.23,2.11,.49,0,.98-.07,1.41-.28h0Zm0-7.03h2.18c-.14-1.34-.98-2.39-2.18-2.88-.42-.21-.91-.28-1.41-.28-1.9,0-3.38,1.33-3.52,3.17h4.92Zm0-8.93c-.42,0-.91-.07-1.41-.07-2.95,0-5.77,1.27-7.73,3.3l4.99,8.51h13.64c0-.35,.07-.63,.07-.92,0-5.48-4.22-10.12-9.56-10.83h0Zm-20.46,6.54l-2.6-4.43c.68-.81,1.58-1.4,2.6-1.69,.56-.21,1.19-.28,1.76-.28h4.99v5.77h-1.41c-1.62,0-2.81,1.13-2.81,2.81v2.18l-2.53-4.36h0Zm-21.52,5.69l-7.66-13.15v22.5h6.19v-.92c1.48,.7,3.09,1.12,4.78,1.12,5.98,0,10.97-4.92,10.97-10.97s-4.99-10.9-10.97-10.9c-1.69,0-3.3,.42-4.78,1.13v-9.07h-6.19v3.94l7.73,13.29c.56-1.12,1.83-1.97,3.23-1.97,1.98,0,3.58,1.61,3.59,3.59,0,1.98-1.61,3.58-3.59,3.59-1.48,0-2.74-.84-3.3-2.18Z"/></svg>