<?xml version="1.0" encoding="UTF-8"?><svg id="Warstwa_1" xmlns="http://www.w3.org/2000/svg" viewBox="0 0 280 140"><defs><style>.cls-1{fill:#005696;}</style></defs><path class="cls-1" d="M99.83,81.72h12.86c1.13,0,1.89-.83,1.89-2.03v-1.02c-.62,.14-1.55,.2-3.3,.2h-4.23l7.36-14.18h-14.47v2.81h6.48l-6.17,11.71c-.55,1.03-.62,1.85-.41,2.51"/><path class="cls-1" d="M87.01,72.67l3.33,6.41c.93,1.85,1.34,2.64,3.44,2.64h4.74c-.27-.21-.52-.66-1-1.51l-4.85-8.92,5.67-6.59h-5.05l-6.29,7.98Z"/><path class="cls-1" d="M80.79,81.72h5.88v-20.36c0-2.12-1.54-3.49-3.68-3.49h-2.2v23.85Z"/><path class="cls-1" d="M78.17,80.18l-5.88-17.47c-.69-2.09-1.41-3.05-4.3-3.05h-2.79l-8.18,22.06h3.71l1.87-5.45h7.87l1.12,3.53c.42,1.3,.93,1.88,2.34,1.88h4.95c-.24-.24-.41-.64-.72-1.5Zm-14.65-6.58l3.16-9.23,2.95,9.23h-6.11Z"/><path class="cls-1" d="M124.52,82.13c4.88,0,9.04-3.49,9.04-9.28,0-4.93-3.95-8.59-8.94-8.59s-9.08,3.59-9.08,9.39c0,5.1,4.13,8.49,8.98,8.49m.07-3.15c-1.99,0-2.72-2.29-2.72-5.9s.69-5.75,2.72-5.75,2.64,2.47,2.64,6.06c0,3.4-.65,5.59-2.64,5.59"/><path class="cls-1" d="M136.2,81.72h3.68v-14.07l9.36,11.22c1.31,1.57,2.17,2.84,3.58,2.84h2.68v-20.21c0-1.17-.79-1.92-1.99-1.92h-1.62v13.31l-8.99-10.71c-1.34-1.61-2.03-2.6-3.99-2.6h-2.71v22.13Z"/><path class="cls-1" d="M167.02,82.13c4.88,0,9.04-3.49,9.04-9.28,0-4.93-3.96-8.59-8.94-8.59s-9.07,3.59-9.07,9.39c0,5.1,4.12,8.49,8.97,8.49m.07-3.15c-2,0-2.72-2.29-2.72-5.9s.69-5.76,2.72-5.76,2.64,2.47,2.64,6.07c0,3.39-.66,5.58-2.64,5.58"/><path class="cls-1" d="M214.53,73.53c.1-.69,.14-1.37,.14-1.98,0-4.05-2.99-7.26-8.11-7.26s-8.8,3.56-8.8,8.97,3.26,8.87,8.59,8.87,7.25-2.77,7.36-5.44c-1.14,.83-2.89,1.3-4.85,1.3-2.98,0-4.91-1.69-5.18-4.45h10.86Zm-10.86-2.36c.19-2.5,1.16-4.08,2.81-4.08,2.27,0,2.72,4.08,2.72,4.08h-5.53Z"/><path class="cls-1" d="M188.92,64.45c-2,0-3.65,.72-4.47,1.55v-4.62c0-2.12-1.51-3.49-3.64-3.49h-2.2v23.84h6.88c6.57,0,10.21-3.43,10.21-9.8,0-4.28-2.92-7.47-6.77-7.47Zm-3.58,14.43h-.89v-11c.38-.03,.69-.07,1.27-.07,2.24,0,3.92,2.06,3.92,4.8,0,4.07-1.55,6.27-4.3,6.27Z"/><path class="cls-1" d="M217.12,81.72h5.85v-20.35c0-2.12-1.55-3.49-3.68-3.49h-2.17v23.84Z"/></svg>