<?xml version="1.0" encoding="UTF-8"?><svg id="Warstwa_1" xmlns="http://www.w3.org/2000/svg" viewBox="0 0 280 140"><defs><style>.cls-1,.cls-2{fill:#fff;}.cls-2{fill-rule:evenodd;}.cls-3{fill:#0068b3;}</style></defs><rect class="cls-3" x="56.08" y="47.5" width="167.85" height="45"/><path class="cls-2" d="M93.7,71.48h-3.94v2.87s.33,4.01-9.85,4.01-9.26-6.88-9.26-6.88v-17.77h-6.7v25.22s-.59,7.83,14.38,7.83,15.17-6.69,15.17-6.69l.2-8.6Z"/><path class="cls-2" d="M135.22,84.28c0,1.48-1.24,2.68-2.76,2.68h-1.59c-1.52,0-2.76-1.2-2.76-2.68,0-7.42,0-14.83,0-22.25,0-1.48,1.23-2.68,2.76-2.68h1.59c1.53,0,2.76,1.2,2.76,2.68v22.25Z"/><path class="cls-2" d="M135.04,55.27c0,1.75-1.47,3.18-3.28,3.18s-3.28-1.42-3.28-3.18,1.47-3.18,3.28-3.18,3.28,1.42,3.28,3.18Z"/><path class="cls-2" d="M176.56,58.18h-6.08v28.14h6.18v-18.34s.37-1.54,1.12-2c.75-.45,4.12-2,11.33-2s10.67,1.27,11.33,2c.66,.73,1.03,1.54,1.03,1.54h5.15c0-1.15,0-2.3,0-3.45,0,0-.37-3.36-4.68-4.72-4.31-1.36-8.05-1.63-12.36-1.63s-8.52,.82-9.74,1.18c-1.22,.36-2.43,1.27-2.43,1.27,0,0-.71-1.72-.84-2Z"/><path class="cls-1" d="M125.42,73.97h-4.53s-.9,2.08-1.71,2.81c-.82,.73-2.95,1.95-8.46,1.95s-6.9-1-8.21-1.95c-1.44-1.03-1.57-2.43-1.57-3.65s1.69-1.3,1.69-1.3h22.62s-.05-1.93-.17-4.6c-.13-2.67-1.18-4.07-1.18-4.07-1.34-2.74-6.92-4.8-13.61-4.8-7.55,0-13.21,2.32-13.82,5.9-.23,1.33-.41,3.34-.41,6.68,0,5.23,.16,6.74,.41,9.17,.34,3.35,6.14,6.08,13.82,6.08,6.77,0,11.6-1.57,13.67-4.43,1.77-2.45,1.48-7.79,1.48-7.79Zm-23.43-5.49c.54-.41,1.85-1.79,8.17-1.79s9.06,1.62,9.36,1.91c.3,.29,.54,.87,.06,1.1-.48,.23-6.32,.58-9.06,.58s-8.29-.29-8.65-.52c-.36-.23-.42-.87,.12-1.27Z"/><path class="cls-2" d="M167.19,73.97h-4.53s-.9,2.08-1.71,2.81c-.82,.73-2.95,1.95-8.46,1.95s-6.9-1-8.21-1.95c-1.44-1.03-1.57-2.43-1.57-3.65s1.69-1.3,1.69-1.3h22.62s-.05-1.93-.17-4.6c-.13-2.67-1.18-4.07-1.18-4.07-1.34-2.74-6.49-4.8-13.61-4.8s-13.21,2.32-13.82,5.9c-.23,1.33-.42,3.34-.42,6.68,0,5.23,.16,6.74,.41,9.17,.34,3.35,6.59,6.08,13.82,6.08s11.6-1.57,13.66-4.43c1.77-2.45,1.48-7.79,1.48-7.79Zm-23.43-5.49c.54-.41,1.85-1.79,8.17-1.79s9.06,1.62,9.36,1.91c.3,.29,.54,.87,.06,1.1-.48,.23-6.32,.58-9.06,.58s-8.29-.29-8.65-.52c-.36-.23-.42-.87,.12-1.27Z"/><g><path class="cls-1" d="M216.6,55.67c-.33-.59-.78-1.04-1.37-1.36-.59-.32-1.19-.47-1.8-.47s-1.22,.16-1.8,.47c-.59,.32-1.05,.77-1.37,1.36-.33,.59-.49,1.2-.49,1.84s.16,1.24,.49,1.82c.32,.58,.78,1.04,1.36,1.36,.58,.32,1.19,.48,1.82,.48s1.24-.16,1.82-.48c.58-.32,1.03-.77,1.36-1.36,.32-.58,.48-1.19,.48-1.82s-.16-1.25-.49-1.84Zm-.52,3.36c-.27,.48-.64,.86-1.13,1.13-.49,.27-.99,.41-1.52,.41s-1.04-.14-1.52-.41c-.49-.27-.86-.65-1.13-1.13-.27-.48-.41-.99-.41-1.52s.14-1.04,.41-1.53c.28-.49,.66-.87,1.14-1.13,.49-.26,.99-.4,1.5-.4s1.01,.13,1.5,.4c.49,.26,.87,.64,1.14,1.13,.27,.49,.41,1,.41,1.53s-.13,1.03-.4,1.52Z"/><path class="cls-1" d="M214.07,57.98c-.08-.08-.2-.15-.34-.21,.34-.03,.61-.15,.82-.36,.21-.21,.31-.46,.31-.75,0-.2-.06-.4-.18-.58-.12-.18-.29-.31-.5-.38-.21-.07-.54-.11-1.01-.11h-1.35v3.94h.64v-1.68h.37c.22,0,.39,.04,.51,.14,.17,.12,.39,.43,.66,.92l.35,.62h.78l-.48-.77c-.23-.37-.42-.63-.58-.78Zm-.84-.66h-.77v-1.19h.72c.31,0,.52,.02,.64,.07,.11,.04,.2,.11,.27,.21,.06,.09,.1,.2,.1,.31,0,.18-.07,.33-.2,.44-.13,.11-.39,.17-.75,.17Z"/></g></svg>