<?xml version="1.0" encoding="UTF-8"?><svg id="Warstwa_1" xmlns="http://www.w3.org/2000/svg" viewBox="0 0 280 140"><defs><style>.cls-1{fill:none;stroke:#fff;stroke-miterlimit:40;stroke-width:3.97px;}.cls-2{fill:#dd1d21;fill-rule:evenodd;}.cls-3{fill:#fbce07;}</style></defs><path class="cls-1" d="M135.73,101.8h-18.44l-1.71-13.67-11.19-8.14c-.49-2.39-.73-4.83-.73-7.27,0-20.06,16.28-36.34,36.34-36.34s36.34,16.28,36.34,36.34c0,2.44-.24,4.88-.73,7.27l-11.18,8.14-1.71,13.67h-18.44l-1.07,.77c-.93,.68-2.05,1.04-3.21,1.04s-2.28-.36-3.21-1.04l-1.06-.77Z"/><path class="cls-3" d="M135.73,101.8h-18.44l-1.71-13.67-11.19-8.14c-.49-2.39-.73-4.83-.73-7.27,0-20.06,16.28-36.34,36.34-36.34s36.34,16.28,36.34,36.34c0,2.44-.24,4.88-.73,7.27l-11.18,8.14-1.71,13.67h-18.44l-1.07,.77c-.93,.68-2.05,1.04-3.21,1.04s-2.28-.36-3.21-1.04l-1.06-.77Z"/><path class="cls-2" d="M135.73,101.8h-18.44l-1.71-13.67-11.19-8.14c-.49-2.39-.73-4.83-.73-7.27,0-20.06,16.28-36.34,36.34-36.34s36.34,16.28,36.34,36.34c0,2.44-.24,4.88-.73,7.27l-11.18,8.14-1.71,13.67h-18.44l-1.07,.77c-.93,.68-2.05,1.04-3.21,1.04s-2.28-.36-3.21-1.04l-1.06-.77Zm.58-6.36h-13.4l-1.35-10.83-11.04-8.03c-.32-1.26-.49-2.55-.49-3.85,0-2.17,.46-4.32,1.34-6.3l19.55,19.77-19-23.46c.75-3.04,2.4-5.79,4.75-7.87l17.04,29.4-15.09-32.19c1.95-2.6,4.68-4.51,7.78-5.47l10.42,36.5-7.61-38c2.31-1.31,4.93-1.99,7.59-1.99,.56,0,1.12,.03,1.68,.09l1.55,39.52,1.55-39.52c.56-.06,1.12-.09,1.68-.09,2.66,0,5.27,.69,7.59,1.99l-7.61,38,10.42-36.5c3.1,.96,5.83,2.88,7.78,5.47l-15.09,32.19,17.04-29.4c2.34,2.08,4,4.82,4.75,7.87l-19,23.46,19.55-19.77c.88,1.98,1.34,4.13,1.34,6.3,0,1.3-.16,2.59-.49,3.85l-11.04,8.03-1.35,10.83h-13.41l-1.98,1.44c-.5,.36-1.1,.56-1.71,.56s-1.21-.19-1.71-.56l-1.98-1.44Z"/></svg>