<?xml version="1.0" encoding="UTF-8"?><svg id="Warstwa_1" xmlns="http://www.w3.org/2000/svg" viewBox="0 0 280 140"><defs><style>.cls-1{fill:#fff;}.cls-2{fill:#002856;}.cls-3{fill:#ffcd00;}</style></defs><rect class="cls-2" x="56.94" y="45.1" width="166.13" height="49.8"/><g><g><path class="cls-1" d="M106.78,81.14c0,1.16-.21,2.03-.63,2.59-.42,.56-1.06,.84-1.92,.84s-1.5-.28-1.91-.84c-.41-.56-.62-1.43-.62-2.59v-15.79c0-1.15,.21-2.01,.62-2.57,.41-.56,1.05-.84,1.91-.84,.51,0,.97,.12,1.37,.37,.4,.25,.75,.62,1.05,1.13,.52-.53,1.14-.94,1.85-1.21,.71-.27,1.49-.41,2.34-.41,2.18,0,4.02,.79,5.51,2.36,1.49,1.57,2.23,3.54,2.23,5.89s-.76,4.34-2.29,5.98c-1.53,1.64-3.36,2.46-5.51,2.46-.77,0-1.48-.11-2.13-.34-.66-.23-1.28-.57-1.86-1.03v3.99Zm-.09-11c0,1.2,.31,2.17,.93,2.9,.62,.73,1.43,1.1,2.42,1.1s1.8-.37,2.42-1.11c.62-.74,.93-1.7,.93-2.9s-.32-2.1-.95-2.83c-.63-.73-1.43-1.1-2.4-1.1s-1.78,.36-2.41,1.09c-.63,.73-.94,1.67-.94,2.84Z"/><path class="cls-1" d="M121.09,74.79v-9.45c0-1.15,.21-2.01,.62-2.57,.41-.56,1.05-.84,1.91-.84,.51,0,.97,.12,1.37,.37,.4,.25,.75,.62,1.05,1.13,.52-.52,1.08-.92,1.67-1.19,.59-.27,1.18-.4,1.78-.4,.7,0,1.31,.23,1.82,.69,.51,.46,.76,1.01,.76,1.64,0,.94-.93,1.73-2.8,2.36-.67,.22-1.17,.41-1.51,.55-.64,.28-1.06,.59-1.27,.94-.21,.34-.31,.97-.31,1.87v4.89c0,1.15-.21,2.01-.63,2.58-.42,.56-1.06,.84-1.92,.84s-1.5-.28-1.91-.84c-.41-.56-.62-1.42-.62-2.58Z"/><path class="cls-1" d="M137.55,71.39c.12,.88,.51,1.57,1.18,2.07,.67,.49,1.56,.74,2.66,.74,.95,0,2.02-.25,3.19-.76,1.17-.51,1.89-.76,2.16-.76,.6,0,1.09,.17,1.46,.51,.38,.34,.57,.78,.57,1.31,0,1.01-.76,1.92-2.28,2.73-1.52,.81-3.31,1.22-5.36,1.22-2.51,0-4.6-.79-6.28-2.37-1.68-1.58-2.52-3.57-2.52-5.95s.82-4.4,2.45-6c1.63-1.6,3.66-2.4,6.1-2.4s4.32,.75,5.9,2.26c1.58,1.5,2.38,3.34,2.38,5.52,0,.71-.17,1.2-.52,1.48-.35,.28-1.01,.42-2,.42h-9.08Zm-.06-3.07h6.7c-.06-.8-.41-1.46-1.04-1.99-.63-.53-1.38-.8-2.25-.8s-1.6,.25-2.22,.76c-.62,.5-1.02,1.18-1.2,2.04Z"/><path class="cls-1" d="M151.37,74.79v-9.45c0-1.16,.21-2.03,.63-2.61,.42-.57,1.05-.86,1.9-.86,.49,0,.94,.13,1.34,.39,.4,.26,.76,.65,1.08,1.17,.52-.53,1.12-.93,1.78-1.18,.66-.25,1.42-.38,2.28-.38,1.09,0,2.06,.18,2.89,.55,.84,.37,1.56,.92,2.17,1.66,.77-.79,1.55-1.35,2.34-1.7,.8-.34,1.72-.52,2.77-.52,1.81,0,3.22,.54,4.23,1.62,1.01,1.08,1.51,2.6,1.51,4.56v6.74c0,1.15-.21,2.01-.63,2.58-.42,.56-1.06,.84-1.92,.84s-1.49-.28-1.9-.84c-.41-.56-.61-1.42-.61-2.58v-5.31c0-1.23-.19-2.13-.56-2.71-.37-.57-.96-.86-1.75-.86-.88,0-1.53,.28-1.93,.84-.41,.56-.61,1.45-.61,2.66v5.37c0,1.15-.21,2.01-.63,2.58-.42,.56-1.06,.84-1.92,.84s-1.5-.28-1.92-.84c-.42-.56-.63-1.42-.63-2.58v-5.31c0-1.24-.18-2.15-.55-2.71-.37-.57-.94-.85-1.73-.85-.88,0-1.53,.28-1.93,.84-.41,.56-.61,1.45-.61,2.66v5.37c0,1.15-.21,2.01-.63,2.58-.42,.56-1.06,.84-1.92,.84s-1.5-.28-1.91-.84c-.41-.56-.62-1.42-.62-2.58Z"/><path class="cls-1" d="M179.42,57.98c0-.75,.29-1.39,.87-1.92,.58-.53,1.27-.8,2.08-.8s1.48,.27,2.05,.8c.57,.53,.85,1.17,.85,1.92s-.28,1.4-.84,1.92-1.25,.79-2.05,.79-1.53-.26-2.09-.79-.85-1.16-.85-1.92Zm5.44,16.81c0,1.16-.2,2.03-.61,2.58-.41,.56-1.04,.84-1.89,.84s-1.5-.28-1.92-.84c-.42-.56-.63-1.42-.63-2.58v-9.45c0-1.15,.21-2.01,.62-2.57,.41-.56,1.06-.84,1.93-.84s1.48,.28,1.89,.84c.41,.56,.61,1.41,.61,2.57v9.45Z"/><path class="cls-1" d="M196.15,61.67c-4.97,0-9,3.73-9,8.33s4.03,8.33,9,8.33,9-3.73,9-8.33-4.03-8.33-9-8.33Zm0,12.4c-2.43,0-4.4-1.82-4.4-4.07s1.97-4.07,4.4-4.07,4.4,1.82,4.4,4.07-1.97,4.07-4.4,4.07Z"/></g><g><path class="cls-3" d="M80.63,74.23l-8.44,7.81c-.31,.29-.48,.67-.48,1.07s.17,.78,.48,1.07c.32,.3,.74,.44,1.16,.44s.84-.15,1.16-.44l8.44-7.81-2.31-2.14Z"/><path class="cls-3" d="M92.43,68.76l-6.41-5.94c-.64-.59-1.68-.59-2.32,0l-5.51,5.1c-.9-.15-1.83,.13-2.5,.74-.86,.79-1.08,1.99-.57,2.99l.08,.15,1.74-1.61,1.11,1.02-1.74,1.61,.16,.07c.39,.17,.82,.26,1.23,.26,.74,0,1.47-.26,2.01-.77,.66-.61,.96-1.48,.79-2.34l4.34-4.04,5.28,4.88c.31,.29,.72,.44,1.16,.44s.85-.16,1.16-.44c.31-.29,.48-.67,.48-1.07s-.17-.78-.48-1.07Z"/><path class="cls-3" d="M92.72,80.34l-8.9-8.25c-.31-.29-.72-.45-1.15-.45h-.02c-.42,0-.82,.15-1.13,.43-.31,.29-.48,.67-.48,1.07,0,.4,.17,.78,.48,1.07l6.21,5.74h-7.29c-.92,0-1.64,.65-1.64,1.49s.73,1.51,1.64,1.51h11.18c.89,0,1.62-.67,1.62-1.5,0-.42-.19-.82-.53-1.11Z"/><path class="cls-3" d="M93.19,61.98c-1.7,0-3.08,1.28-3.08,2.85s1.38,2.85,3.08,2.85,3.08-1.28,3.08-2.85-1.38-2.85-3.08-2.85Z"/><path class="cls-3" d="M96.54,74.1v-1.68h2.41c-.37-.98-1.38-1.69-2.56-1.69-.95,0-1.79,.45-2.28,1.14l-3.87,.02-1.34-1.24c-.59-.55-1.55-.55-2.14,0-.59,.54-.59,1.43,0,1.98l1.77,1.64c.29,.27,.68,.41,1.06,.41h4.53c.49,.67,1.32,1.1,2.27,1.1,1.19,0,2.19-.69,2.57-1.67h-2.42Z"/></g></g></svg>