<?xml version="1.0" encoding="UTF-8"?><svg id="Warstwa_1" xmlns="http://www.w3.org/2000/svg" viewBox="0 0 280 140"><defs><style>.cls-1{fill:#ec0000;}</style></defs><path class="cls-1" d="M76.8,58.19c-.05-1.08-.35-2.16-.91-3.13l-4.95-8.58c-.38-.65-.64-1.35-.78-2.07l-.21,.36c-1.23,2.12-1.23,4.74,0,6.86l3.96,6.86c1.23,2.12,1.23,4.74,0,6.86l-.21,.36c-.14-.72-.41-1.42-.78-2.07l-3.63-6.28-2.32-4.01c-.38-.65-.64-1.35-.78-2.07l-.21,.36c-1.22,2.12-1.23,4.72-.01,6.84h0s3.97,6.88,3.97,6.88c1.23,2.12,1.23,4.74,0,6.86l-.21,.36c-.14-.72-.41-1.42-.78-2.07l-4.95-8.58c-.66-1.15-.97-2.44-.91-3.73-5.3,1.38-8.96,4.33-8.96,7.73,0,4.74,7.08,8.58,15.81,8.58s15.81-3.84,15.81-8.58c0-3.4-3.66-6.35-8.96-7.73m149.07-.27c0,.98-.12,2.17-.3,2.79-.77-.09-1.54-.12-2.47-.12-.8,0-1.6,.06-2.41,.18v12.71h-3.27v-14.85c1.4-.48,3.74-.83,5.58-.83,1.01,0,2.14,.03,2.85,.12m-21.92,6.47h7.37c0-2.44-1.31-3.86-3.56-3.86s-3.53,1.34-3.8,3.86m10.48,2.73h-10.43c.42,2.64,1.96,3.92,4.87,3.92,1.78,0,3.59-.39,5.23-1.13-.12,.86-.3,1.99-.5,2.97-1.49,.68-3.06,.95-4.81,.95-5.46,0-8.11-3.03-8.11-8.11,0-4.43,2.05-7.93,7.25-7.93,4.66,0,6.68,3.06,6.68,6.8,0,.92-.06,1.66-.18,2.52m-19.66,2.91v-9.15c-.86-.18-1.75-.3-2.61-.3-3.24,0-4.78,2.02-4.78,5.41,0,3.03,1.22,5.17,4.13,5.17,1.31,0,2.38-.45,3.27-1.13m3.24-17.35v20.79h-3l-.18-1.9c-.83,1.4-2.11,2.26-4.25,2.26-3.92,0-6.53-2.85-6.53-7.84s2.79-8.2,8.29-8.2c.86,0,1.66,.09,2.44,.24v-4.9c1.01-.36,2.17-.45,3.24-.45m-16.57,10.81v9.98h-3.27v-9.42c0-2.35-.77-3.48-4.04-3.48-.77,0-1.69,.09-2.58,.24v12.65h-3.27v-14.85c2.08-.5,4.37-.83,5.94-.83,5.47,0,7.22,2.11,7.22,5.7m-19.99,6.59v-9.33c-.68-.12-1.43-.18-2.35-.18-3.39,0-4.96,2.08-4.96,5.41,0,3.03,1.22,5.17,4.13,5.17,1.28,0,2.32-.42,3.18-1.07m3.27-11.47v14.85h-3l-.18-1.78c-.83,1.31-2.11,2.14-4.19,2.14-3.92,0-6.53-2.85-6.53-7.84s2.79-8.2,8.29-8.2c2.14,0,3.89,.24,5.61,.83m-17.52,12.42c.95,0,1.84-.18,2.55-.45-.09,.89-.21,1.9-.39,2.76-.89,.36-1.84,.48-2.76,.48-3.18,0-5.2-1.46-5.2-5.08v-15.59c1.01-.33,2.26-.48,3.27-.48v5.61h5.17c-.06,1.01-.15,1.93-.3,2.79h-4.87v7.28c0,1.93,.95,2.67,2.52,2.67m-9.06-7.54v9.98h-3.27v-9.42c0-2.35-.77-3.48-4.04-3.48-.77,0-1.69,.09-2.58,.24v12.65h-3.27v-14.85c2.08-.5,4.37-.83,5.94-.83,5.47,0,7.22,2.11,7.22,5.7m-19.99,6.59v-9.33c-.68-.12-1.43-.18-2.35-.18-3.39,0-4.96,2.08-4.96,5.41,0,3.03,1.22,5.17,4.13,5.17,1.28,0,2.32-.42,3.18-1.07m3.27-11.47v14.85h-3l-.18-1.78c-.83,1.31-2.11,2.14-4.19,2.14-3.92,0-6.53-2.85-6.53-7.84s2.79-8.2,8.29-8.2c2.14,0,3.89,.24,5.61,.83m-29.67,14.2c.06-1.22,.24-2.05,.56-3,1.66,.77,3.8,1.16,5.44,1.16,2.76,0,4.31-.89,4.31-2.64s-1.13-2.52-3.92-3.74l-1.51-.65c-2.79-1.22-4.69-2.79-4.69-5.94,0-3.39,2.35-5.55,7.16-5.55,1.93,0,3.74,.27,5.44,.86-.09,1.19-.3,2.11-.59,2.97-1.6-.59-3.5-.86-4.87-.86-2.58,0-3.77,1.01-3.77,2.58s1.16,2.44,3.24,3.33l1.6,.68c3.77,1.6,5.35,3.3,5.35,6.18,0,3.42-2.58,5.76-7.63,5.76-2.44,0-4.43-.36-6.09-1.13"/><g><path class="cls-1" d="M91.62,88.4c0-4.51,2.5-7.19,6.97-7.19,1.07,0,2.1,.12,3.04,.46-.04,.75-.18,1.41-.38,1.97-.81-.28-1.67-.44-2.66-.44-2.72,0-4.67,1.69-4.67,5.1s1.99,5.3,4.63,5.3c.95,0,2.06-.22,2.86-.62-.04,.75-.16,1.41-.34,2.16-.81,.28-1.63,.44-2.82,.44-4.27,0-6.63-2.92-6.63-7.19"/><path class="cls-1" d="M110.18,90.19c0-2.42-1.11-3.53-2.9-3.53-2.03,0-2.96,1.35-2.96,3.45,0,2.44,1.11,3.53,2.96,3.53,1.95,0,2.9-1.33,2.9-3.45m-8.08,.1c0-3.48,2.03-5.5,5.24-5.5s5.06,2.28,5.06,5.22c0,3.47-2.01,5.5-5.26,5.5s-5.04-2.28-5.04-5.22"/><path class="cls-1" d="M122.77,88.6v6.67h-2.18v-6.29c0-1.57-.52-2.32-2.7-2.32-.52,0-1.13,.06-1.73,.16v8.46h-2.18v-9.93c1.39-.34,2.92-.56,3.97-.56,3.65,0,4.82,1.41,4.82,3.81"/><path class="cls-1" d="M124.34,94.83c.04-.81,.14-1.39,.3-1.85,.91,.46,2.18,.69,3.14,.69,1.25,0,1.95-.34,1.95-1.17,0-.73-.6-1.03-1.55-1.33l-1.01-.32c-2.01-.64-2.68-1.69-2.68-3.14,0-1.83,1.29-2.94,3.79-2.94,1.25,0,2.32,.14,3.26,.48-.04,.58-.12,1.11-.32,1.75-.93-.3-1.85-.42-2.88-.42-1.39,0-1.75,.44-1.75,1.05,0,.73,.5,1.09,1.55,1.43l1.05,.34c1.89,.6,2.7,1.47,2.7,3.04,0,1.81-1.43,3.06-4.05,3.06-1.47,0-2.56-.2-3.49-.67"/><path class="cls-1" d="M142.05,85.03v10.25h-2.03l-.12-1.29c-.67,.89-1.63,1.53-2.98,1.53-2.4,0-3.67-1.27-3.67-3.81v-6.67h2.18v6.17c0,1.69,.58,2.44,2.24,2.44,.79,0,1.57-.26,2.18-.79v-7.82h2.18Z"/><path class="cls-1" d="M159.62,88.6v6.67h-2.18v-6.35c0-1.49-.66-2.26-2.48-2.26-.72,0-1.47,.16-2.14,.44,.14,.44,.2,.93,.2,1.51v6.67h-2.18v-6.37c0-1.47-.68-2.24-2.56-2.24-.62,0-1.27,.06-1.87,.18v8.44h-2.18v-9.93c1.39-.34,2.92-.56,4.27-.56s2.48,.24,3.24,.77c1.13-.5,2.32-.77,3.44-.77,3.36,0,4.47,1.41,4.47,3.81"/><path class="cls-1" d="M163.28,89.19h4.92c0-1.63-.87-2.58-2.38-2.58s-2.36,.89-2.54,2.58m7.01,1.83h-6.97c.28,1.77,1.31,2.62,3.26,2.62,1.19,0,2.4-.26,3.49-.75-.08,.58-.2,1.33-.34,1.99-.99,.46-2.04,.64-3.22,.64-3.65,0-5.42-2.02-5.42-5.42,0-2.96,1.37-5.3,4.84-5.3,3.12,0,4.47,2.05,4.47,4.55,0,.62-.04,1.11-.12,1.69"/><path class="cls-1" d="M177.71,84.87c0,.66-.08,1.45-.2,1.87-.52-.06-1.03-.08-1.65-.08-.54,0-1.07,.04-1.61,.12v8.5h-2.18v-9.93c.93-.32,2.5-.56,3.73-.56,.68,0,1.43,.02,1.91,.08"/><path class="cls-1" d="M189.41,91.34c0-1.41-1.07-2.07-3.28-2.07h-1.93v4.09h1.85c2.24,0,3.36-.54,3.36-2.02m-5.2-8.04v4.07h1.79c1.97,0,2.82-.71,2.82-2.03,0-1.17-.64-2.12-3.2-2.12-.5,0-.93,.02-1.41,.08m7.47,7.94c0,2.56-1.61,4.03-5.38,4.03h-4.31v-13.64c.99-.18,2.34-.32,3.59-.32,3.75,0,5.5,1.43,5.5,3.77,0,1.17-.6,2.5-1.93,3.1,1.57,.4,2.52,1.59,2.52,3.06"/><path class="cls-1" d="M199.81,93.01v-6.23c-.46-.08-.95-.12-1.57-.12-2.26,0-3.32,1.39-3.32,3.61,0,2.03,.81,3.45,2.76,3.45,.85,0,1.55-.28,2.12-.72m2.18-7.66v9.93h-2.01l-.12-1.19c-.56,.87-1.41,1.43-2.8,1.43-2.62,0-4.37-1.91-4.37-5.24s1.87-5.48,5.54-5.48c1.43,0,2.6,.16,3.75,.56"/><path class="cls-1" d="M212.95,88.6v6.67h-2.18v-6.29c0-1.57-.52-2.32-2.7-2.32-.52,0-1.13,.06-1.73,.16v8.46h-2.18v-9.93c1.39-.34,2.92-.56,3.97-.56,3.65,0,4.82,1.41,4.82,3.81"/><path class="cls-1" d="M224.09,95.27h-2.64l-3.89-5.46v-.14l3.79-4.65h2.58l-3.93,4.71,4.09,5.54Zm-9.07-13.74c.73-.24,1.47-.32,2.18-.32v14.06h-2.18v-13.74Z"/></g></svg>