<?xml version="1.0" encoding="UTF-8"?><svg id="Warstwa_1" xmlns="http://www.w3.org/2000/svg" viewBox="0 0 280 140"><defs><style>.cls-1{fill:#004ea8;}.cls-2{fill:#feda00;}</style></defs><rect class="cls-1" x="49.54" y="44.81" width="180.92" height="50.38"/><g><path class="cls-2" d="M82.57,63.27c-3.38-1-7.25-.16-9.65,2.24-2.06,2.04-2.86,5.19-2.12,8.09,.36,1.34,1.94,2.76,3.75,2.74l9.11,.02,.2-.1,1.78-6.93c-1.84-.02-3.84,.04-5.85,.02,0,0-1.46,5.17-1.48,5.29-.6,.1-1.28,.22-1.84,0-.36-.14-.5-.52-.4-.92l2.06-7.85c.06-.26,.44-.7,.8-.86,.94-.4,2.14-.24,2.95,.2,0,0,.52,.32,.94,.56,.3-.58,.66-1.2,.92-1.86-.4-.34-.76-.4-1.16-.64"/><path class="cls-2" d="M152.13,63.11l.04,.16,2.16,7.27-1.52,5.87c2.14-.02,4.15-.02,6.37,.02l1.6-5.83,6.19-7.45-.04-.08c-1.02,.02-1.9,.02-2.9,0-1.24,1.46-2.58,3.06-3.93,4.57-.22,.18-.22,.2-.3-.16-.46-1.44-.86-2.94-1.36-4.41l-6.31,.04Z"/><path class="cls-2" d="M168.32,63.09c-1.16,4.41-2.22,8.71-3.42,13.1l-.06,.2h10.98c.2-.7,.44-1.44,.5-2.16l-4.51-.02-.28-.02,.78-3.12,.26-.2h3.01l.14-.14c.16-.7,.4-1.46,.5-2.16l-3.15-.06v-.14c.3-.96,.48-2.06,.82-2.96,1.6-.1,3.43,.06,4.89-.04,.2-.7,.38-1.5,.52-2.26h-10.98Z"/><path class="cls-2" d="M151.69,58.86c-.24,.2-.6,.3-.94,.3-.28,.4-.68,.74-1.2,.7-.06,0-.12-.02-.18-.04-.3,.3-.72,.54-1.18,.48-.34-.04-.74-.1-.9-.4,.5-.04,1.16-.14,1.36-.74,.18-.36,.6-.08,.9-.16,.04,0,.06-.02,.1-.04,.3-.16,.44-.36,.64-.56,.46,.06,.9,.2,1.4,.12,.2,.04,.06,.24,0,.34m-4.17,4.35c-.28,.06-.58-.14-.68-.44,0-.08-.02-.14-.02-.18-.14-.42-.92-.4-.68-.92,.24,.02,.44,.1,.68,.14,.14,.04,.28,.06,.46,.06,.04,.3,.2,1.12,.26,1.2l-.02,.14Zm5.23-5.99c-1.02,0-2.14-.06-3.2,.02-1,.08-1.94,.3-2.72,.78-.58,.34-1.08,.84-1.44,1.54-.22,.48-.34,1.02-.34,1.58v.1c.02,.78,.26,1.58,.74,2.16-.2,1.2-.36,2.7,.24,3.81,.16,.3,.4,.74,.76,.8,0-.02,.02-.02,.04-.04,.48-.6,.86-1.32,1.06-2.1,.24-1.1,.64,.34,1.14,.24,.2-.5,.46-1,.4-1.6,.04-.1,.08-.14,.12-.16,.18-.1,.46,.4,.74,.46,.3-.3,.44-.8,.54-1.2,.2-.5-.14-1.04,.16-1.44,.66,.24,1.5,.46,2.26,.16,.3-.1,.96-.28,.8-.5-.36-.06-.66-.2-.8-.46,.94,.06,1.9-.04,2.5-.74-.5-.16-1.1-.26-1.3-.7,.04-.1,.1-.1,.14-.16,2.7,.3,5.97,.72,8.27-.64,.7-.5,1.34-1.3,1.34-2.2-3.54,.8-7.71,.64-11.46,.3m-5.73,15.1c-3.77,2.42-6.21,6.57-10.21,8.63-.54,.24-1.14,.44-1.6,.78,.16,.22,.16,.56,.46,.52,1.6-.66,3.1-1.56,4.45-2.7,3.04-2.9,6.25-6.33,9.91-8.37-.1-.2-.26-.4-.4-.56l-2.61,1.7Zm-4.21,2.38c-.76-1.68-1.68-3.28-2.48-4.95l-.2-.14c-1.14,2.08-2,4.35-2.7,6.63-.56,1.2-1.6,2.14-2.46,3.14-.26,.3-.5,.7-.36,1.2,.06,.14,.16,.34,.36,.3,3.2-.94,5.51-3.81,7.85-6.19m.8-.68c1.7-1.6,3.71-2.9,5.57-4.11l-1.1-1.9c-.5,.46-.96,1.36-1.66,1.6-.8-.76-1.34-1.6-1.64-2.6-1.3,.64-2.6,1.24-3.78,2,.72,1.7,1.66,3.34,2.46,5.01h.16Zm.16-7.67l-2.99-.34c.04,.64-.06,1.34-.16,2,1.02-.42,2.06-1.06,3.14-1.66m.7-1c.04-.54,.14-1.24,.26-1.8-1,.46-1.96,1.1-2.92,1.7,.9,.06,1.76,.2,2.66,.1m-4.15-.34l3.85-2.26,.06-.14c-.4-.9-.1-1.9,.1-2.8-1.94,.98-3.67,2.08-5.35,3l-.04,.14,1.2,2,.18,.06Z"/><path class="cls-2" d="M204.55,66.29l-.86,3.31c-.12,.46-.48,.76-.86,.82h-.16s-1.14,.02-1.58,.02l.02-.1c-.04,.16,1.3-5.43,1.3-5.43,.14,0,.28,0,.42-.02,.64-.04,1.36-.12,1.66,.4,.18,.44,.06,1,.06,1m5.65-1.04c-.5-1.06-1.88-2.16-3.68-2.16-1.24-.02-2.42-.02-3.69-.02-1.72,0-3.56,0-5.91,.02-1.1,4.27-2.38,8.63-3.53,13.32,1.78,.04,3.59-.02,5.67-.02h.4l1-3.65,.12-.3c.2,0,.58-.04,.68,.1l.96,3.85h.6c2.28-.08,3.81,0,5.63,0-.36-1.6-.78-3.09-1.02-4.73,.8-.56,1.84-1.36,2.34-2.2,.76-1.2,1.12-2.9,.42-4.21"/><path class="cls-2" d="M185.44,72.22h-3.34c.48-.94,1.08-1.92,1.7-2.88,.38-.58,.74-1.14,1.08-1.68,.24,.1,.1,.42,.26,.58l.36,3.91-.06,.08Zm5.25-8.79l-.06-.34c-1.86-.02-3.66,0-5.47,0-.46,.74-.9,1.48-1.36,2.22-2.26,3.66-4.55,7.39-6.79,11l-.06,.1c.88-.02,1.8-.02,2.58-.02,.42-.6,.74-1.34,1.32-2.02l2.95,.02h1.92v.12c.04,.76,.06,1.24,.12,1.9,2,0,3.83-.04,5.93-.02l-1.08-12.96Z"/><path class="cls-2" d="M130.74,66.37l-1.94,7.33c-.06,.22-.18,.4-.32,.54-.2,.16-.46,.26-.72,.26,0,0-1.12,.02-1.58,.02l.04-.1c-.04,.14,1.78-7.11,2.26-8.99,.06-.28,.1-.44,.1-.44,.68,0,1.72-.26,2.1,.38,.16,.44,.06,1,.06,1m5.15-.12c-.42-1.64-2.02-3.26-4.07-3.26h-8.41l-3.44,13.42,8.51-.02h.78c.92,0,1.96-.5,2.8-1.06,2.8-1.86,4.63-5.53,3.83-9.07"/><path class="cls-2" d="M114.08,65.93l-2.02,8.01c-.06,.16-.14,.3-.22,.42-.3,.4-.76,.66-1.26,.66-.66,0-1.1-.68-.98-1.14l2.04-8.01c.04-.18,.1-.34,.2-.48,.26-.4,.72-.68,1.2-.68,.66,0,1.12,.6,1.04,1.22m4.75-.38c-.4-.64-.88-1.3-1.8-1.86-1.54-.9-3.42-1.16-5.19-.96-1.1,.14-2.14,.46-3.01,.96-2.86,1.64-4.67,4.95-4.37,8.29,.14,2.06,1.74,3.78,3.61,4.35,1.24,.34,2.52,.44,3.77,.3,1.98-.22,3.83-1.1,5.19-2.62,2-2.2,3.12-6.35,1.8-8.45"/><path class="cls-2" d="M97.17,65.87l-2.04,8.01c-.04,.16-.1,.3-.16,.42-.26,.46-.72,.72-1.24,.72-.66,0-1.1-.68-.96-1.14l2.02-8.01c.04-.16,.1-.32,.18-.46,.26-.42,.74-.7,1.22-.7,.66,0,1.14,.6,.98,1.16m4.81-.32c-.4-.64-.86-1.3-1.8-1.86-1.54-.9-3.44-1.16-5.21-.94-1.08,.12-2.12,.44-2.98,.94-2.5,1.44-4.21,4.17-4.39,7.09v.96c.02,.08,.02,.16,.02,.24,.16,2.06,1.74,3.78,3.6,4.35,1.24,.34,2.52,.44,3.75,.3,1.98-.22,3.85-1.1,5.21-2.62,2.02-2.2,3.12-6.35,1.8-8.45"/></g></svg>