<?xml version="1.0" encoding="UTF-8"?><svg id="Warstwa_1" xmlns="http://www.w3.org/2000/svg" viewBox="0 0 280 140"><defs><style>.cls-1{fill:#fff;}.cls-2{fill:#50b848;}</style></defs><rect class="cls-1" x="70.99" y="41.13" width="138.01" height="57.74"/><rect class="cls-2" x="73.37" y="43.51" width="133.26" height="52.98"/><g><path d="M85.61,82.47c.41,.51,.69,1.1,1.28,1.24,3.79,.92,7.15,1.32,11.24,1.32h.03c3.15,0,6.71-.47,9.8-1.95,2.19-1.04,4.13-2.66,5.38-4.95,.06,.82,.28,1.57,.65,2.22,.13,.22,.27,.43,.42,.62l1,1.25c.66,.99,1.64,1.68,2.72,2.12,1.2,.48,2.54,.69,3.92,.69h.02c1.98,0,3.97-.51,5.69-1.58,0,.25,.09,.5,.25,.69,.21,.26,.54,.42,.87,.42h9.16c.53,0,.99-.37,1.1-.9l2.59-12.41c.05-.25,.09-.5,.13-.74l1.01,11.49c.02,.22,.1,.43,.23,.59l1.25,1.58c.21,.26,.52,.42,.88,.42h12.64c.42,0,.81-.24,1-.61l9.65-18.88-.53,2.56c-.07,.33,.01,.67,.22,.93l.65,.8c-1.12,.59-2.15,1.38-3,2.42-.93,1.14-1.62,2.57-1.98,4.3-.11,.54-.17,1.06-.17,1.56,0,.99,.23,1.91,.67,2.67,.13,.23,.27,.44,.43,.64l1.22,1.55c.65,.82,1.53,1.41,2.49,1.8,1.2,.48,2.54,.69,3.92,.69,0,0,.01,0,.02,0,1.98,0,3.97-.51,5.69-1.58,0,.25,.09,.49,.25,.69,.21,.26,.54,.42,.87,.42h9.16c.53,0,.99-.37,1.1-.9l2.59-12.41c.17-.81,.25-1.57,.25-2.28,0-1.59-.43-2.96-1.22-4.02l-1.24-1.57c-1.18-1.6-2.99-2.45-4.9-2.92-1.92-.47-4.02-.59-5.96-.59-3.9,0-5.94,.38-9.07,1.21-.41,.11-.73,.44-.81,.86l-.06,.31-1.08-1.37c-.24-.33-.57-.54-.96-.54h-9.63c-.46,0-.88,.28-1.05,.71l-1.8,4.52,.05-2.52c0-.3-.11-.6-.32-.81l-1.24-1.57c-.21-.21-.5-.34-.8-.34h-10.1c-.32,0-.62,.13-.83,.37-.21,.23-.32,.54-.29,.86l.41,4.67c-.19-.47-.43-.9-.71-1.29l-1.24-1.57c-1.18-1.6-2.99-2.45-4.9-2.92-1.92-.47-4.01-.59-5.96-.59-3.9,0-5.94,.38-9.07,1.21-.41,.11-.73,.44-.81,.86l-1.19,5.71c-.07,.32,.01,.66,.21,.91l.67,.82c-1.12,.59-2.15,1.38-3,2.42-.27,.33-.52,.7-.75,1.08,0-.04,0-.08,0-.12,0-1.14-.23-2.15-.64-3.01-.2-.42-.44-.79-.72-1.13l-1.33-1.68c-.71-.85-1.62-1.47-2.57-1.93-1.81-.87-3.84-1.24-5.5-1.58,.05,0,.09-.01,.14-.02,.67-.09,1.42-.1,2.02-.1,2.84,0,5.37,.52,7.42,1.3,.31,.12,.65,.09,.94-.07,.29-.16,.49-.43,.56-.76l1.46-7.01c.07-.34-.02-.69-.23-.94l-1.26-1.59c-.15-.18-.37-.32-.62-.37-2.82-.6-6.06-.96-9.08-.96-3.19,0-6.9,.33-10.13,1.69-1.61,.68-3.11,1.64-4.32,2.97-1.21,1.32-2.11,3.02-2.54,5.08-.17,.79-.25,1.53-.25,2.22-.02,2.13,.91,3.62,1.93,4.91,.51,.63,1.04,1.34,1.64,1.83,2.07,1.68,4.82,2.18,6.98,2.66,.12,.03,.25,.05,.37,.08-.06,.02-.13,.03-.19,.04-.68,.14-1.52,.21-2.39,.21-2.98,0-6.17-.61-8.55-1.7-.31-.14-.67-.13-.98,.02-.31,.15-.52,.44-.59,.77l-1.48,7.08c-.12,.6,.36,1.11,.63,1.44"/><g><path class="cls-1" d="M112.7,62.02c-2.18-.82-4.84-1.37-7.82-1.37-1.64,0-4.51,.04-4.88,1.8-.74,3.56,14.32,.2,12.13,10.72-1.53,7.32-9.15,9.16-15.22,9.16-4.03,0-7.28-.39-11-1.29l1.48-7.08c2.57,1.17,5.89,1.8,9.02,1.8,2.47,0,4.8-.51,5.09-1.88,.77-3.68-14.29-.35-12.08-10.96,1.57-7.51,9.67-8.85,15.9-8.85,2.94,0,6.11,.35,8.85,.94l-1.46,7.01Z"/><path class="cls-1" d="M119.89,62.18c3.11-.82,4.94-1.17,8.78-1.17,5.64,0,12.27,1.02,10.72,8.45l-2.59,12.41h-9.16l.61-2.94h-.08c-1.85,2.31-4.59,3.41-7.36,3.41-3.8,0-7.12-1.72-6.23-5.99,1.31-6.26,7.2-7.51,12.1-7.51,1.37,0,2.89,.2,3.78,.27,.51-2.62-2.13-2.93-4.59-2.93s-5.01,.74-7.17,1.72l1.19-5.71Zm10.01,10.19h-1.22c-2.54,0-5.53,.24-6.08,2.89-.37,1.76,.47,2.45,2.38,2.45,2.54,0,4.31-2.35,4.76-4.55l.16-.78Z"/><path class="cls-1" d="M167.08,61.48l-10.45,20.43h-12.64l-1.8-20.43h10.1l-.25,13.38h.08l5.34-13.38h9.63Z"/><path class="cls-1" d="M170.29,62.18c3.11-.82,4.94-1.17,8.78-1.17,5.64,0,12.27,1.02,10.72,8.45l-2.59,12.41h-9.16l.61-2.94h-.08c-1.85,2.31-4.58,3.41-7.36,3.41-3.8,0-7.12-1.72-6.23-5.99,1.31-6.26,7.2-7.51,12.1-7.51,1.37,0,2.89,.2,3.78,.27,.51-2.62-2.13-2.93-4.59-2.93s-5.01,.74-7.17,1.72l1.19-5.71Zm10.01,10.19h-1.22c-2.54,0-5.53,.24-6.08,2.89-.37,1.76,.47,2.45,2.38,2.45,2.54,0,4.31-2.35,4.76-4.55l.16-.78Z"/></g></g></svg>