<?xml version="1.0" encoding="UTF-8"?><svg id="Warstwa_1" xmlns="http://www.w3.org/2000/svg" viewBox="0 0 280 140"><defs><style>.cls-1{fill:#495054;}.cls-2{fill:#e35e3b;}</style></defs><path class="cls-1" d="M53.9,65.38l2.99,3.02c1.24,1.28,1.17,3.34-.14,4.69l-3.16,3.2-3.84-3.87c-.78-.78-2.03-.78-2.77,0l-8.28,8.32,5.54,5.61c1.74,1.78,4.66,1.67,6.47-.18l10.31-10.41c2.77-2.84,2.88-7.25,.25-9.88l-3.94-3.98-3.41,3.48Z"/><path class="cls-2" d="M44.7,53.79l-10.41,10.59c-2.7,2.74-2.84,7.11-.21,9.77l3.91,3.94,3.2-3.23-2.95-2.99c-1.24-1.28-1.24-3.23,0-4.48l3.55-3.62,3.77,3.84c.78,.78,2.03,.78,2.74,0l8.28-8.32-5.44-5.58c-1.74-1.85-4.62-1.74-6.43,.07Z"/><path class="cls-1" d="M103.26,81.65c-.96,.25-2.2,.5-3.66,.71-1.46,.21-3.09,.32-4.73,.32s-3.09-.21-4.16-.64c-1.14-.43-1.99-1.03-2.67-1.81-.68-.75-1.14-1.67-1.42-2.81-.28-1.1-.43-2.24-.43-3.55v-10.38h5.58v9.84c0,1.71,.25,2.91,.71,3.73,.46,.78,1.35,1.14,2.67,1.14,.43,0,.78,0,1.28-.04,.46-.04,.89-.07,1.21-.14v-14.53h5.58l.04,18.16Z"/><path class="cls-1" d="M112.86,78.53c1.03,0,1.74-.07,2.2-.28,.43-.21,.64-.53,.64-1.1,0-.43-.28-.78-.78-1.14-.53-.32-1.42-.68-2.56-1.1-.89-.28-1.67-.64-2.42-.96-.71-.32-1.35-.71-1.81-1.21-.5-.46-.89-.99-1.14-1.67-.28-.64-.43-1.42-.43-2.35,0-1.74,.71-3.13,2.1-4.23,1.35-.99,3.3-1.53,5.69-1.53,1.21,0,2.35,.07,3.41,.28,1.14,.21,1.99,.43,2.63,.68l-.99,4.16c-.68-.21-1.35-.43-2.13-.57-.75-.18-1.63-.25-2.56-.25-1.74,0-2.63,.46-2.63,1.39,0,.21,.04,.43,.14,.57,.07,.18,.21,.32,.46,.46,.21,.18,.53,.32,.92,.5,.39,.18,.89,.39,1.46,.57,1.24,.43,2.2,.82,3.02,1.24,.78,.43,1.46,.89,1.88,1.35,.46,.5,.78,1,.99,1.67,.21,.57,.28,1.28,.28,2.06,0,1.88-.75,3.27-2.2,4.23-1.46,.96-3.52,1.42-6.22,1.42-1.74,0-3.2-.14-4.37-.43-1.14-.28-1.99-.5-2.42-.71l.96-4.34c.96,.39,1.95,.64,2.95,.82,.99,.32,1.99,.46,2.91,.46Z"/><path class="cls-1" d="M123.98,60.3h5.58l.04,2.38h5.05v4.26h-5.01l-.04,7.11c0,1.14,.21,2.56,.64,3.27,.43,.68,1.24,.99,2.45,.99,.57,0,1.21-.04,1.88-.18,.64-.14,1.21-.25,1.74-.46l.78,4.16c-.68,.25-1.42,.5-2.2,.68-.78,.21-1.81,.28-3.02,.28-1.53,0-2.77-.21-3.8-.57-.99-.39-1.81-.92-2.42-1.67-.57-.75-1.03-1.53-1.24-2.56-.25-1-.39-2.13-.39-3.34l-.04-14.36Z"/><path class="cls-2" d="M204.47,62.61c1.67,0,3.02,.18,4.12,.53,1.14,.39,1.99,.89,2.67,1.53,.68,.68,1.14,1.46,1.42,2.45,.28,.96,.43,2.38,.43,3.59v11.09c-.78,.18-1.88,.39-3.34,.57-1.42,.21-3.13,.32-5.19,.32-1.28,0-2.42-.14-3.45-.32-1.03-.21-1.95-.53-2.67-1.03s-1.35-1.14-1.74-1.92c-.43-.78-.64-1.74-.64-2.91,0-1.1,.25-2.81,.71-3.59,.46-.75,1.1-1.39,1.88-1.81,.78-.46,1.67-.78,2.67-.96,.99-.21,1.99-.28,3.09-.28,.75,0,1.35,.04,1.95,.07,.57,.04,1.03,.14,1.35,.25,0,0-.14-.92-.21-1.17-.04-.25-.07-.53-.68-1.1-.57-.53-1.6-.82-2.95-.82-.96,0-1.88,.07-2.81,.21-.92,.14-2.56,.71-3.2,.96l-.68-4.37c.96-.43,1.6-.57,1.99-.71,.5-.14,1.03-.21,1.63-.28,.6-.07,1.21-.18,1.81-.21,.57,.04,1.24-.07,1.81-.07Zm.5,15.99c.53,0,1.1,0,1.6-.04,.5-.04,.92-.04,1.21-.14v-4.37c-.21-.04-.57-.07-1-.14-.46-.04-.89-.07-1.24-.07-.53,0-1.03,.04-1.46,.07-.46,.04-.89,.18-1.21,.32-.32,.18-.64,.39-.78,.68-.21,.28-.28,1.03-.28,1.46,0,.82,.28,1.42,.89,1.71,.46,.39,1.21,.53,2.27,.53Z"/><path class="cls-2" d="M216.09,60.08h5.58v2.59h5.05v4.26h-5.05v6.86c0,1.14,.21,2.56,.64,3.27,.43,.68,1.24,.99,2.45,.99,.57,0,1.21-.04,1.88-.18,.64-.14,1.21-.25,1.74-.46l.78,4.16c-.68,.25-1.42,.5-2.2,.68-.78,.21-1.81,.28-3.02,.28-1.53,0-2.77-.21-3.8-.57-.99-.39-1.81-.92-2.42-1.67-.57-.71-1.03-1.53-1.24-2.56-.25-1-.39-2.13-.39-3.34v-14.32Z"/><path class="cls-1" d="M77.25,69.89v-12.62h5.58v17.38c0,1.21-.14,2.35-.39,3.34-.25,.99-.68,1.88-1.24,2.56-.57,.71-1.42,1.24-2.42,1.67-.99,.39-2.31,.57-3.8,.57-1.21,0-2.2-.07-3.02-.28-.78-.21-1.6-.43-2.2-.68l.78-4.16c.53,.21,1.14,.32,1.74,.46,.64,.14,1.24,.18,1.88,.18,1.24,0,2.1-.32,2.45-.99,.43-.68,.64-2.13,.64-3.27v-4.16Z"/><path class="cls-2" d="M187.45,74.26v-.11c0,1.14,.21,2.56,.64,3.27,.43,.68,1.24,.99,2.45,.99,.57,0,1.24-.04,1.88-.18,.68-.14,.78-.25,1.35-.46l.78,4.16c-.71,.28-.99,.46-1.81,.68-.82,.21-1.81,.28-3.02,.28-1.53,0-2.77-.21-3.8-.57-.99-.39-1.81-.92-2.42-1.67-.57-.71-1.03-1.53-1.24-2.56-.25-1-.39-2.13-.39-3.34v-14.68h5.54v9.99l.04,4.19Z"/><path class="cls-2" d="M145.37,62.14c.28-.04,.64-.04,.96-.07,.39-.04,.75-.04,1.14-.04,1.88,0,3.2,0,4.23,.78,.92,.64,1.46,1.39,1.46,2.59s-.53,3.27-1.42,3.87c-.78,.57-1.95,.75-3.52,.78v4.02l.53,.71c.14,.14,.25,.28,.46,.57l.53,.71c.39,.5,.78,.99,1.14,1.49l3.62,4.8h6.36c-.46-.92-.92-1.88-1.46-2.81-.5-.96-1.1-1.88-1.63-2.7-.53-.89-1.14-1.71-1.67-2.49-.57-.78-1.14-1.53-1.67-2.13,1.6-.64,2.77-1.46,3.62-2.56,.78-1.1,1.24-2.49,1.24-4.26,0-2.81-1.03-4.83-3.09-6.18-2.13-1.28-5.93-1.99-9.81-1.99-1.1,0-2.35,.04-3.62,.18-1.35,.07-1.88,.25-3.13,.5v24.45h5.79v-12.33l-.07-7.89Z"/><path class="cls-2" d="M230.02,72.56c0-1.71,.25-3.16,.78-4.51,.5-1.28,1.21-2.35,1.99-3.2,.78-.82,1.81-1.49,2.88-1.92,1.1-.43,2.2-.68,3.41-.68,2.67,0,4.83,.82,6.4,2.49,1.6,1.67,2.35,4.12,2.35,7.39,0,.32,0,.68-.04,1.03-.04,.36-.04,.71-.07,.99h-12.19c.14,1.14,.64,1.99,1.6,2.67,.92,.68,2.13,.99,3.66,.99,.99,0,1.95-.07,2.88-.28,.96-.18,1.74-.43,2.35-.68l.71,4.48c-.28,.14-.68,.28-1.14,.43-.5,.14-1.03,.28-1.63,.39-.57,.14-1.24,.21-1.88,.28-.68,.07-1.35,.14-1.99,.14-1.67,0-3.2-.25-4.48-.75-1.28-.5-2.35-1.21-3.13-2.13-.78-.89-1.46-1.92-1.81-3.13-.43-1.31-.64-2.59-.64-4.02Zm12.65-2.1c-.04-.46-.07-.92-.25-1.35-.14-.43-.32-.82-.64-1.21-.28-.32-.64-.64-1.03-.82-.43-.21-.96-.32-1.6-.32s-1.14,.07-1.6,.28c-.43,.21-.78,.46-1.1,.82-.28,.39-.5,.75-.68,1.17-.18,.46-.28,.92-.32,1.39l7.21,.04Z"/><path class="cls-2" d="M161.22,72.56c0-1.71,.25-3.16,.78-4.51,.5-1.28,1.21-2.35,1.99-3.2,.78-.82,1.81-1.49,2.88-1.92,1.1-.43,2.2-.68,3.41-.68,2.67,0,4.83,.82,6.4,2.49,1.6,1.67,2.35,4.12,2.35,7.39,0,.32,0,.68-.04,1.03-.04,.36-.04,.71-.07,.99h-12.19c.14,1.14,.64,1.99,1.6,2.67,.92,.68,2.13,.99,3.66,.99,.99,0,1.95-.07,2.88-.28,.96-.18,1.74-.43,2.35-.68l.71,4.48c-.28,.14-.68,.28-1.14,.43-.5,.14-1.03,.28-1.63,.39-.57,.14-1.24,.21-1.88,.28-.68,.07-1.35,.14-1.99,.14-1.67,0-3.2-.25-4.48-.75-1.28-.5-2.35-1.21-3.13-2.13-.78-.89-1.46-1.92-1.81-3.13-.43-1.31-.64-2.59-.64-4.02Zm12.65-2.1c-.04-.46-.07-.92-.25-1.35-.14-.43-.32-.82-.64-1.21-.28-.32-.64-.64-1.03-.82-.43-.21-.96-.32-1.6-.32s-1.14,.07-1.6,.28c-.43,.21-.78,.46-1.1,.82-.28,.43-.5,.75-.68,1.17-.18,.46-.28,.92-.32,1.39l7.21,.04Z"/></svg>