<?xml version="1.0" encoding="UTF-8"?><svg id="Warstwa_1" xmlns="http://www.w3.org/2000/svg" viewBox="0 0 280 140"><defs><style>.cls-1{fill:#fff;}.cls-2{fill:#e20613;}.cls-3{fill:#ffde00;}.cls-4{fill:#090b09;}</style></defs><rect class="cls-3" x="28.99" y="44.81" width="222.02" height="50.38"/><path class="cls-4" d="M71.3,69.69l-26.62-15.32,7.97,7.01c-8.93,.69-8.49,8.75-8.49,8.75,.61,8.06,8.93,7.97,8.93,7.97l-8.32,7.53,26.54-15.94Z"/><path class="cls-1" d="M46.28,69.73c0-4.26,3.45-7.72,7.71-7.72s7.72,3.46,7.72,7.72-3.45,7.72-7.72,7.72-7.71-3.46-7.71-7.72"/><path class="cls-2" d="M56.68,66.58h-7.18l-.56,1.88h1.32l-.87,2.81h-.85l-.65,1.88h8.06c1.93,0,4.23-.55,4.73-3,.35-1.72-.22-3.56-3.99-3.56m-.11,3.64c-.22,.53-1.09,1.05-1.91,1.05h-1.35l.91-2.81h1.69c.69,.06,.98,.85,.66,1.76"/><polygon class="cls-4" points="128.17 77.22 129.53 74.16 132.37 74.16 136.6 64.51 133.81 64.51 135.12 61.44 144.72 61.44 149.54 71.14 152.48 64.51 149.64 64.51 150.99 61.44 160.6 61.44 159.24 64.51 156.45 64.51 150.81 77.22 144.14 77.22 139.22 67.57 136.34 74.16 139.18 74.16 137.78 77.22 128.17 77.22"/><path class="cls-4" d="M121.77,64.51l1.35-3.06h9.61l-1.35,3.06h-2.84l-3.88,8.93c-.77,1.71-2.71,4.06-8.21,4.06h-5.68c-1.94,0-6.5-.94-4.65-5.14l3.43-7.85h-2.84l1.36-3.06h13.84l-1.35,3.06h-2.79l-2.89,7.01c-.4,.86-1.03,2.86,2.21,2.86,2.72,0,3.88-1.92,4.29-2.86l3.25-7.01h-2.84Z"/><polygon class="cls-4" points="162.54 64.51 163.93 61.44 177.73 61.44 176.38 64.51 173.49 64.51 169.35 74.16 173.81 74.16 178.28 69.47 181.07 69.47 177.64 77.22 156.99 77.22 158.3 74.16 161.14 74.16 165.38 64.51 162.54 64.51"/><path class="cls-4" d="M201.09,61.22h-6.76c-8.39-.04-9.97,5.06-10.83,6.99-4.95,10.1,2.98,9.29,4.87,9.29h6.58c4.42,0,9.02-.81,11.96-7.54,2.78-6.38,2.57-8.74-5.82-8.74m-1.62,5.97l-1.67,4.12c-.49,1.18-1.4,3.07-3.97,3.07h-1.85c-1.08,0-2.57-.68-1.53-3.07l1.89-4.12c.45-1.03,1.85-2.96,3.29-2.96h2.3c2.7,0,2.11,1.65,1.53,2.96"/><path class="cls-4" d="M233.47,61.44h-20.51l-1.36,3.06h2.8l-4.19,9.65h-2.84l-1.31,3.06h13.8l1.35-3.06h-2.8l1.31-3.11h8.66c4.91,0,5.81-2.71,6.36-3.92l.63-1.49c1.45-3.38-.68-4.19-1.9-4.19m-6.57,4.87c-.5,1.17-.91,1.67-2.26,1.67h-3.52l1.49-3.47h2.84c1.27,.05,1.94,.63,1.45,1.81"/><path class="cls-4" d="M96.34,61.44h-15.15l-1.35,3.06h2.84l-4.24,9.65h-2.8l-1.35,3.06h16c7.36,0,8.98-.54,11.91-7.26,2.17-4.96,2.52-8.52-5.86-8.52m-1.58,6.31l-1.67,3.88c-.5,1.18-.68,2.53-3.24,2.53h-3.2l4.24-9.65h2.35c2.71,0,2.12,1.94,1.53,3.25"/></svg>