<?xml version="1.0" encoding="UTF-8"?><svg id="Warstwa_1" xmlns="http://www.w3.org/2000/svg" viewBox="0 0 280 140"><defs><style>.cls-1{fill:#221e20;}.cls-2{fill:#00a14e;}</style></defs><g><path class="cls-2" d="M114.26,81.27h3.24v-5.49h4.26v5.49h3.24v-13.33h-3.24v4.86h-4.26v-4.86h-3.24v13.33Zm12.81-6.67c0,3.87,2.21,6.95,6.13,6.95s6.12-3.07,6.12-6.95-2.21-6.94-6.12-6.94-6.13,3.08-6.13,6.94m3.24,0c0-1.97,.8-3.95,2.89-3.95s2.89,1.98,2.89,3.95-.8,3.96-2.89,3.96-2.89-1.98-2.89-3.96m11.14,6.67h3.05v-10.12h.04l2.61,10.12h2.47l2.61-10.12h.03v10.12h3.04v-13.33h-4.77l-2.14,8.89h-.03l-2.14-8.89h-4.77v13.33Zm16.45,0h10.08v-2.99h-6.84v-2.53h6.09v-2.69h-6.09v-2.34h6.66v-2.78h-9.9v13.33Z"/><path class="cls-1" d="M215.61,75.93c0,3.02-1.03,4.95-4.07,4.95-3.59,0-3.9-3.34-3.9-4.95v-7.99h-.77v7.99c0,1.77,.25,5.66,4.66,5.66,3.72,0,4.84-2.48,4.84-5.66v-7.99h-.77v7.99Z"/></g><polygon class="cls-1" points="184.94 74.7 192.08 74.7 192.08 73.98 184.94 73.98 184.94 68.65 192.53 68.65 192.53 67.94 184.18 67.94 184.18 81.27 192.62 81.27 192.62 80.56 184.94 80.56 184.94 74.7"/><g><path class="cls-1" d="M199.72,80.87c-3.25,0-5.15-2.86-5.15-6.27s1.9-6.28,5.15-6.28c2.07,0,3.9,1.34,4.23,3.58h.77c-.02-.19-.59-4.29-5-4.29-3.73,0-5.92,3.08-5.92,6.98s2.19,6.98,5.92,6.98c2.73,0,4.93-2.33,5.2-5.51h-.76c-.14,2.48-2.02,4.8-4.44,4.8"/><path class="cls-1" d="M177.69,80.87c-2.46,0-4.63-1.1-4.47-4.01h-.01l1.63-2.8c.66,.3,1.41,.48,2.21,.65,2.12,.46,4.25,.86,4.25,3.12s-2.1,3.04-3.6,3.04m.12-6.74c-.96-.21-1.86-.39-2.6-.73l2.92-5.01c1.7,.32,2.78,1.45,2.85,3.35h.77c-.1-2.35-1.38-3.61-3.24-4.01l2.46-4.24-.58-.38-12.73,21.89,.58,.39,4.29-7.39c.45,2.58,2.59,3.58,5.15,3.58,1.9,0,4.37-.99,4.37-3.75s-2.12-3.23-4.25-3.69"/></g><polygon class="cls-1" points="251.67 67.94 247.16 74.99 242.67 67.94 241.8 67.94 246.76 75.69 246.76 81.27 247.53 81.27 247.53 75.69 252.52 67.94 251.67 67.94"/><polygon class="cls-1" points="232.19 68.65 236.56 68.65 236.56 81.27 237.33 81.27 237.33 68.65 241.72 68.65 241.72 67.94 232.19 67.94 232.19 68.65"/><rect class="cls-1" x="230.23" y="67.94" width=".76" height="13.33"/><g><path class="cls-1" d="M219.68,74.49v-5.84h4.42c1.67,0,3.17,.76,3.17,2.78,0,2.15-1.36,3.06-3.17,3.06h-4.42Zm5.69,.34v-.04c1.66-.3,2.66-1.63,2.66-3.42,0-2.57-1.76-3.43-3.93-3.43h-5.19v13.33h.76v-6.06h4.42c2.18,0,2.77,1.04,2.92,2.33,.14,1.29-.14,2.82,.33,3.73h.85c-.5-.71-.29-2.2-.42-3.58-.12-1.39-.57-2.63-2.42-2.86"/><path class="cls-1" d="M27.48,81.27c.49-1.41,8.37-21.7,9.21-23.74,.45-1.08,.99-1.84,1.64-2.27,.65-.43,1.32-.64,2.38-.64,1.16,0,1.96,.37,2.41,.69,.44,.31,1.04,.87,1.62,2.23,.58,1.36,8.92,23.18,9.11,23.74h-6.08c-.26-.73-1.53-4.39-1.98-5.6h-10.27c-.38,1.06-1.61,4.7-1.94,5.6h-6.11Zm16.31-11.32c-.24-.68-2.93-8.12-3.07-8.44-.14,.35-2.81,7.71-3.07,8.44h6.14Z"/><path class="cls-1" d="M80.74,81.27c.49-1.41,8.37-21.7,9.21-23.74,.45-1.08,.99-1.84,1.64-2.27,.65-.43,1.32-.64,2.38-.64,1.16,0,1.96,.37,2.41,.69,.44,.31,1.04,.87,1.62,2.23,.58,1.36,8.92,23.18,9.11,23.74h-6.08c-.26-.73-1.53-4.39-1.98-5.6h-10.27c-.38,1.06-1.61,4.7-1.94,5.6h-6.11Zm16.31-11.32c-.24-.68-2.93-8.12-3.07-8.44-.14,.35-2.81,7.71-3.07,8.44h6.14Z"/><path class="cls-1" d="M77.34,59.88l2.43-3.33c-.61-.66-1.13-1.16-2.68-1.68-1.56-.53-3.11-.25-4.11,1.12,0,0-1.5,2.05-3.64,4.98l3.59,4.92,4.41-6Zm-15.82-4.04h0s0,0,0-.01c-1.01-1.38-2.88-1.63-4.17-.54-1.29,1.09-1.52,3.09-.51,4.47,0,0,2.98,4.07,6.69,9.15-4.55,6.23-9.04,12.36-9.04,12.36h7.21l5.43-7.43c1.88,2.57,3.77,5.16,5.43,7.43h7.55l-18.6-25.43Z"/></g></svg>