<?xml version="1.0" encoding="UTF-8"?><svg id="Warstwa_1" xmlns="http://www.w3.org/2000/svg" viewBox="0 0 280 140"><defs><style>.cls-1{fill:#fcc717;}.cls-2{fill:#323130;}</style></defs><g><path class="cls-2" d="M109.55,61.54v4.26h3.52v3.61h-3.52v5.71c0,1.9,.48,2.77,1.94,2.77,.68,0,1-.03,1.45-.13l.03,3.71c-.61,.23-1.81,.42-3.16,.42-1.58,0-2.9-.55-3.71-1.36-.9-.94-1.35-2.45-1.35-4.68v-6.45h-2.1v-3.61h2.1v-2.94l4.81-1.32Z"/><path class="cls-2" d="M115.91,70.99c0-2.32-.03-3.84-.13-5.19h4.19l.19,2.9h.13c.81-2.32,2.71-3.29,4.26-3.29,.45,0,.68,.03,1.03,.1v4.61c-.39-.06-.77-.13-1.32-.13-1.81,0-3.03,.97-3.36,2.48-.06,.32-.1,.71-.1,1.1v8h-4.9v-10.58Z"/><path class="cls-2" d="M140.94,77.76c0,1.48,.06,2.94,.26,3.81h-4.42l-.29-1.58h-.1c-1.03,1.26-2.65,1.94-4.52,1.94-3.19,0-5.1-2.32-5.1-4.84,0-4.1,3.68-6.03,9.26-6.03v-.19c0-.87-.45-2.06-2.87-2.06-1.61,0-3.32,.55-4.36,1.19l-.9-3.16c1.1-.61,3.26-1.42,6.13-1.42,5.26,0,6.9,3.1,6.9,6.84v5.52Zm-4.74-3.65c-2.58,0-4.58,.61-4.58,2.48,0,1.26,.84,1.87,1.94,1.87,1.19,0,2.23-.81,2.55-1.81,.06-.26,.1-.55,.1-.84v-1.71Z"/><path class="cls-2" d="M144.85,70.83c0-1.97-.06-3.61-.13-5.03h4.26l.23,2.19h.1c.65-1.03,2.23-2.55,4.87-2.55,3.23,0,5.65,2.16,5.65,6.81v9.32h-4.9v-8.74c0-2.03-.71-3.42-2.48-3.42-1.36,0-2.16,.94-2.52,1.84-.13,.32-.16,.77-.16,1.23v9.1h-4.9v-10.74Z"/><path class="cls-2" d="M163.72,77.31c.9,.55,2.77,1.16,4.23,1.16s2.1-.48,2.1-1.29-.48-1.23-2.29-1.84c-3.29-1.1-4.55-2.87-4.52-4.74,0-2.97,2.52-5.19,6.42-5.19,1.84,0,3.45,.45,4.42,.94l-.84,3.39c-.71-.39-2.1-.9-3.42-.9-1.19,0-1.87,.48-1.87,1.26s.61,1.16,2.55,1.84c3,1.03,4.23,2.58,4.26,4.87,0,2.97-2.29,5.13-6.81,5.13-2.06,0-3.9-.48-5.1-1.13l.87-3.48Z"/></g><g><path class="cls-1" d="M189.59,81.15c-.87,.42-2.52,.74-4.39,.74-5.1,0-8.36-3.13-8.36-8.07,0-4.61,3.16-8.39,9.03-8.39,1.29,0,2.71,.23,3.74,.61l-.77,3.65c-.58-.26-1.45-.48-2.74-.48-2.58,0-4.26,1.84-4.23,4.42,0,2.87,1.94,4.42,4.32,4.42,1.16,0,2.06-.19,2.81-.52l.58,3.61Z"/><path class="cls-1" d="M205.56,77.76c0,1.48,.06,2.94,.26,3.81h-4.42l-.29-1.58h-.1c-1.03,1.26-2.65,1.94-4.52,1.94-3.19,0-5.1-2.32-5.1-4.84,0-4.1,3.68-6.03,9.26-6.03v-.19c0-.87-.45-2.06-2.87-2.06-1.61,0-3.32,.55-4.36,1.19l-.9-3.16c1.1-.61,3.26-1.42,6.13-1.42,5.26,0,6.9,3.1,6.9,6.84v5.52Zm-4.74-3.65c-2.58,0-4.58,.61-4.58,2.48,0,1.26,.84,1.87,1.94,1.87,1.19,0,2.23-.81,2.55-1.81,.06-.26,.1-.55,.1-.84v-1.71Z"/><path class="cls-1" d="M209.43,77.31c.9,.55,2.77,1.16,4.23,1.16s2.1-.48,2.1-1.29-.48-1.23-2.29-1.84c-3.29-1.1-4.55-2.87-4.52-4.74,0-2.97,2.52-5.19,6.42-5.19,1.84,0,3.45,.45,4.42,.94l-.84,3.39c-.71-.39-2.1-.9-3.42-.9-1.19,0-1.87,.48-1.87,1.26s.61,1.16,2.55,1.84c3,1.03,4.23,2.58,4.26,4.87,0,2.97-2.29,5.13-6.81,5.13-2.06,0-3.9-.48-5.1-1.13l.87-3.48Z"/><path class="cls-1" d="M223.47,58.67h4.9v9.03h.06c.52-.71,1.16-1.26,1.94-1.65,.74-.39,1.65-.61,2.55-.61,3.13,0,5.52,2.16,5.52,6.94v9.19h-4.9v-8.68c0-2.06-.71-3.48-2.55-3.48-1.29,0-2.1,.84-2.45,1.74-.13,.29-.16,.71-.16,1.06v9.36h-4.9v-22.91Z"/></g><g><path class="cls-2" d="M60.69,59.97v4.26h3.52v3.61h-3.52v5.71c0,1.9,.48,2.77,1.94,2.77,.68,0,1-.03,1.45-.13l.03,3.71c-.61,.23-1.81,.42-3.16,.42-1.58,0-2.9-.55-3.71-1.36-.9-.94-1.35-2.45-1.35-4.68v-6.45h-2.1v-3.61h2.1v-2.94l4.81-1.32Z"/><path class="cls-2" d="M78.72,79.59c-.87,.42-2.52,.74-4.39,.74-5.1,0-8.36-3.13-8.36-8.07,0-4.61,3.16-8.39,9.03-8.39,1.29,0,2.71,.23,3.74,.61l-.77,3.65c-.58-.26-1.45-.48-2.74-.48-2.58,0-4.26,1.84-4.23,4.42,0,2.87,1.94,4.42,4.32,4.42,1.16,0,2.06-.19,2.81-.52l.58,3.61Z"/></g><polygon class="cls-1" points="76.95 45.1 74.76 50.42 86.04 50.42 86.04 89.58 58.64 89.58 56.45 94.9 91.37 94.9 91.37 45.1 76.95 45.1"/><polygon class="cls-2" points="56.82 89.58 46.89 89.58 46.89 50.42 72.93 50.42 75.13 45.1 41.56 45.1 41.56 94.9 54.63 94.9 56.82 89.58"/></svg>