<?xml version="1.0" encoding="UTF-8"?><svg id="Warstwa_1" xmlns="http://www.w3.org/2000/svg" viewBox="0 0 280 140"><defs><style>.cls-1{fill:#fff;}.cls-2{fill:#e20613;}.cls-3{fill:#1d1d1b;}</style></defs><rect class="cls-1" x="29.17" y="44.81" width="221.66" height="50.38"/><path class="cls-3" d="M70.72,56.65c0,11.17-6.91,22.57-18.25,24.06-1.92,.25,3.57,.25,5.48,0,11.34-1.48,18.25-12.88,18.25-24.06h-5.48Z"/><path class="cls-3" d="M81.44,56.65c0,11.17-6.91,22.57-18.25,24.06-1.92,.25,3.57,.25,5.48,0,11.34-1.48,18.25-12.88,18.25-24.06h-5.48Z"/><path class="cls-3" d="M49.05,56.65v24.06c11.35-1.48,18.23-12.88,18.23-24.06h-18.23Z"/><path class="cls-2" d="M78.51,80.65c9.24-1.99,16.42-12.08,16.44-24l19.8,.02v5.97h-10.58v4.21l9.22,.02v5.81h-9.22v7.96h-25.66Z"/><path class="cls-2" d="M116.51,70.9c0,3.76,.69,5.84,2.17,7.46,2.29,2.51,6.5,3.15,11.61,3.15s9.33-.64,11.62-3.15c1.47-1.62,2.17-3.7,2.17-7.46v-14.25h-9.5v13.07c0,4.55-1.3,5.97-4.2,5.97s-4.19-1.42-4.19-5.97v-13.07h-9.68v14.25Z"/><path class="cls-2" d="M213.61,63.67l3.3,7.97h-6.83l3.54-7.97Zm-5.6-7.03l-11.71,24.09h9.79l1.64-3.59h11.54l1.55,3.59h10.96l-11.71-24.09h-12.06Z"/><polygon class="cls-2" points="146.98 56.65 146.98 80.64 167.09 80.64 167.09 74.35 156.89 74.35 156.89 56.65 146.98 56.65"/><path class="cls-2" d="M168.98,80.64h13.9c7.07,0,9.6-.85,12.29-3.12,2-1.67,3.1-5.1,3.1-8.64s-1.14-6.5-2.79-8.27c-3.13-3.33-7.51-3.97-14.25-3.97h-12.26v23.99Zm9.87-18.2h2.53c4.15,0,6.66,1.97,6.66,6.25s-2.5,6.25-6.66,6.25h-2.53v-12.5Z"/></svg>